<?xml version="1.0" standalone="no"?>
<!DOCTYPE svg PUBLIC "-//W3C//DTD SVG 1.1//EN" "http://www.w3.org/Graphics/SVG/1.1/DTD/svg11.dtd" >
<svg xmlns="http://www.w3.org/2000/svg">
<metadata></metadata>
<defs>
<font id="conthraxsemibold" horiz-adv-x="1615" >
<font-face units-per-em="2048" ascent="1491" descent="-557" />
<missing-glyph horiz-adv-x="686" />
<glyph horiz-adv-x="0" />
<glyph unicode="&#xd;" horiz-adv-x="686" />
<glyph horiz-adv-x="686" />
<glyph unicode=" "  horiz-adv-x="686" />
<glyph unicode="&#x09;" horiz-adv-x="686" />
<glyph unicode="&#xa0;" horiz-adv-x="686" />
<glyph unicode="!" horiz-adv-x="544" d="M111 1458q0 47 47 47h229q47 0 47 -47l-57 -921q-2 -45 -45 -45h-119q-43 0 -45 45zM125 45v197q0 45 47 45h201q45 0 45 -45v-197q0 -45 -45 -45h-201q-47 0 -47 45z" />
<glyph unicode="&#x22;" horiz-adv-x="1005" d="M123 897zM129 1481q-6 55 39 55h219q45 0 39 -55l-47 -541q-2 -25 -12.5 -34t-32.5 -9h-113q-23 0 -33 9t-12 34zM580 1481q-6 55 39 55h219q45 0 39 -55l-47 -541q-2 -25 -12.5 -34t-32.5 -9h-113q-23 0 -33 9t-12 34z" />
<glyph unicode="#" horiz-adv-x="1746" d="M121 369v123q0 37 37 36h278v377h-278q-37 0 -37 37v123q0 37 37 37h278v295q0 37 37 37h121q37 0 37 -37v-295h487v295q0 37 37 37h121q37 0 37 -37v-295h276q37 0 37 -37v-123q0 -37 -37 -37h-276v-377h276q37 0 37 -36v-123q0 -37 -37 -37h-276v-295q0 -37 -37 -37 h-121q-37 0 -37 37v295h-487v-295q0 -37 -37 -37h-121q-37 0 -37 37v295h-278q-37 0 -37 37zM631 528h487v377h-487v-377z" />
<glyph unicode="$" horiz-adv-x="1671" d="M125 119v170q0 41 39 41h598v303h-318q-166 0 -242.5 79t-76.5 234v101q0 70 16.5 129t54 101t98 65.5t150.5 23.5h318v154q0 37 37 36h94q37 0 37 -36v-154h553q37 0 37 -41v-170q0 -41 -37 -41h-553v-270h321q168 0 243 -80t75 -238v-127q0 -72 -16.5 -131t-53.5 -101 t-98.5 -65.5t-151.5 -23.5h-319v-164q0 -37 -37 -37h-94q-37 0 -37 37v164h-598q-39 0 -39 41zM418 948q0 -104 108 -104h236v270h-236q-59 0 -83.5 -29.5t-24.5 -80.5v-56zM930 330h239q59 0 84 29.5t25 82.5v80q0 111 -109 111h-239v-303z" />
<glyph unicode="%" horiz-adv-x="2336" d="M120 942v195q0 162 72 229t242 67h260q170 0 242.5 -67.5t72.5 -228.5v-195q0 -162 -72.5 -229.5t-242.5 -67.5h-260q-170 0 -242 67.5t-72 229.5zM121 0zM301 958q0 -88 29.5 -118.5t113.5 -30.5h242q84 0 113.5 30.5t29.5 118.5v162q0 88 -29.5 119t-113.5 31h-242 q-84 0 -113.5 -31t-29.5 -119v-162zM513.5 12.5q-5.5 12.5 4.5 24.5l1106 1376q10 10 21.5 15.5t34.5 5.5h127q16 0 20 -12.5t-6 -24.5l-1106 -1377q-10 -10 -21.5 -15t-33.5 -5h-125q-16 0 -21.5 12.5zM1327 297v195q0 162 72 229t242 67h260q170 0 242.5 -67.5 t72.5 -228.5v-195q0 -162 -72.5 -229.5t-242.5 -67.5h-260q-170 0 -242 67.5t-72 229.5zM1508 313q0 -88 29.5 -118.5t113.5 -30.5h242q84 0 113.5 30.5t29.5 118.5v162q0 88 -29.5 119t-113.5 31h-242q-84 0 -113.5 -31t-29.5 -119v-162z" />
<glyph unicode="&#x26;" horiz-adv-x="1789" d="M84 293v121q0 113 42 186.5t146 130.5l230 125l-113 102q-33 31 -53.5 56.5t-32.5 53.5t-17 59.5t-5 72.5v125q0 115 47 182.5t157 67.5h506q113 0 165 -60.5t52 -150.5v-164q0 -59 -6 -103t-23.5 -78t-48 -61.5t-79.5 -54.5l-158 -86l246 -219l264 309q10 10 21.5 16.5 t35.5 6.5h201q29 0 37 -19.5t-10 -40.5l-365 -436l426 -379q14 -14 7 -34.5t-30 -20.5h-258q-23 0 -35 6t-24 19l-244 221l-73 -88q-41 -49 -75 -80t-73 -48.5t-88 -23.5t-119 -6h-385q-125 0 -196.5 69.5t-71.5 223.5zM377 367q0 -68 28.5 -95.5t79.5 -27.5h242 q33 0 57.5 3t43 11t35 22.5t34.5 36.5l84 99l-309 282l-201 -108q-94 -45 -94 -166v-57zM565 1178q0 -41 9.5 -61.5t39.5 -49.5l105 -94l155 86q45 23 57.5 47t12.5 72v77q0 37 -19.5 58.5t-58.5 21.5h-231q-70 0 -70 -92v-65z" />
<glyph unicode="'" horiz-adv-x="555" d="M129 1481q-6 55 39 55h219q45 0 39 -55l-47 -541q-2 -25 -12.5 -34t-32.5 -9h-113q-23 0 -33 9t-12 34z" />
<glyph unicode="(" horiz-adv-x="927" d="M272 344v696q0 217 31 369t92.5 246t154.5 137t220 43h49q25 0 25 -29v-139q0 -29 -25 -29h-49q-72 0 -128 -27.5t-94 -96t-58.5 -184.5t-20.5 -290v-696q0 -176 20.5 -290.5t58.5 -184.5t94 -97.5t128 -27.5h49q25 0 25 -29v-139q0 -27 -25 -27h-49q-127 0 -220 43 t-154.5 137.5t-92.5 246t-31 368.5z" />
<glyph unicode=")" horiz-adv-x="927" d="M84 -283q0 29 25 29h49q72 0 128 27.5t94 96.5t58.5 183.5t20.5 290.5v696q0 174 -20.5 290t-58.5 185.5t-94.5 97t-127.5 27.5h-49q-25 0 -25 29v139q0 27 25 27h49q127 0 220 -43t154.5 -137t92 -246t30.5 -369v-696q0 -217 -30.5 -368.5t-92 -246t-154.5 -137.5 t-220 -43h-49q-25 0 -25 29v139z" />
<glyph unicode="*" horiz-adv-x="1191" d="M39 1081l43 129q6 27 39 15l409 -162l-26 440q-4 33 22 33h140q25 0 24 -33l-26 -438l407 160q33 12 41 -15l41 -129q10 -27 -23 -34l-423 -111l278 -340q23 -25 0 -41l-111 -78q-23 -20 -40 10l-236 369l-238 -369q-18 -27 -41 -14l-108 82q-25 14 -2 41l278 338 l-426 110q-31 10 -22 37z" />
<glyph unicode="+" horiz-adv-x="1255" d="M86 655v123q0 37 37 37h405v406q0 37 37 36h123q37 0 37 -36v-406h408q37 0 36 -37v-123q0 -37 -36 -37h-408v-407q0 -37 -37 -37h-123q-37 0 -37 37v407h-405q-37 0 -37 37z" />
<glyph unicode="," horiz-adv-x="546" d="M127 43v199q0 45 47 45h201q45 0 45 -45v-174q0 -27 -2 -45.5t-12 -51.5l-76 -278q-8 -27 -19.5 -36t-36.5 -9h-81q-49 0 -39 45l55 305h-35q-47 0 -47 45z" />
<glyph unicode="-" horiz-adv-x="782" d="M45 631v147q0 37 37 37h616q37 0 37 -37v-147q0 -37 -37 -37h-616q-37 0 -37 37z" />
<glyph unicode="." horiz-adv-x="546" d="M127 45v197q0 45 47 45h201q45 0 45 -45v-197q0 -45 -45 -45h-201q-47 0 -47 45z" />
<glyph unicode="/" horiz-adv-x="847" d="M12 -264l615 1898q6 18 12 26.5t27 8.5h143q39 0 25 -37l-615 -1900q-6 -16 -12 -24.5t-27 -8.5h-143q-37 0 -25 37z" />
<glyph unicode="0" horiz-adv-x="1857" d="M119 541v352q0 147 31.5 249.5t100 167t177.5 94.5t264 30h473q156 0 264.5 -30t177 -94.5t100.5 -167t32 -249.5v-352q0 -147 -32 -251t-100.5 -168.5t-177 -93t-264.5 -28.5h-473q-156 0 -264.5 28.5t-177 93t-100 168t-31.5 251.5zM422 553q0 -82 12 -136.5t43 -86 t83 -45t132 -13.5h473q80 0 132.5 13.5t83 45t43 86t12.5 136.5v328q0 82 -12.5 135t-43 86t-83 46t-132.5 13h-473q-80 0 -132 -13t-83 -46t-43 -86t-12 -135v-328z" />
<glyph unicode="1" horiz-adv-x="692" d="M47 1206v183q0 45 47 45h273q102 0 145 -42t43 -132v-1215q0 -45 -45 -45h-211q-45 0 -45 45v1073q0 43 -43 43h-117q-47 0 -47 45z" />
<glyph unicode="2" horiz-adv-x="1767" d="M113 174v315q0 170 90 261.5t268 91.5h778q106 0 107 114v88q0 53 -24.5 85t-84.5 32h-1036q-45 0 -45 45v183q0 45 45 45h1085q186 0 274.5 -92.5t88.5 -241.5v-144q0 -168 -90 -259t-269 -91h-778q-106 0 -106 -117v-174q0 -43 41 -43h1153q47 0 47 -45v-182 q0 -45 -47 -45h-1307q-104 0 -147 42t-43 132z" />
<glyph unicode="3" horiz-adv-x="1726" d="M102 45v182q0 45 45 45h1006q80 0 116 31t36 96v76q0 63 -38 97t-141 34h-966q-47 0 -47 45v146q0 45 47 45h966q102 0 139.5 31.5t37.5 91.5v71q0 66 -36 95.5t-118 29.5h-1002q-45 0 -45 45v183q0 45 45 45h1061q211 0 300 -84t89 -254v-99q0 -170 -120 -260 q131 -84 131 -264v-119q0 -82 -18.5 -147.5t-61.5 -111.5t-112.5 -70.5t-170.5 -24.5h-1098q-45 0 -45 45z" />
<glyph unicode="4" horiz-adv-x="1853" d="M74 418v155q0 57 16 95.5t64 70.5l927 633q51 35 93.5 48.5t111.5 13.5h121q90 0 134 -42t44 -167v-674h168q45 0 45 -47v-166q0 -45 -45 -45h-168v-248q0 -45 -45 -45h-211q-47 0 -47 45v248h-1077q-66 0 -98.5 34.5t-32.5 90.5zM412 565q0 -14 16 -14h854v588 q0 23 -16 22h-13q-20 0 -45 -16l-784 -539q-12 -10 -12 -28v-13z" />
<glyph unicode="5" horiz-adv-x="1767" d="M113 780v480q0 90 43 132t147 42h1258q45 0 45 -45v-183q0 -45 -45 -45h-1104q-41 0 -41 -43v-233q0 -43 41 -43h843q178 0 268.5 -91.5t90.5 -258.5v-158q0 -150 -88 -242t-275 -92h-1134q-47 0 -47 45v182q0 45 47 45h1085q59 0 84 32t25 85v103q0 115 -107 114h-946 q-104 0 -147 41t-43 133z" />
<glyph unicode="6" horiz-adv-x="1777" d="M119 541v352q0 147 31.5 249.5t100 167t177.5 94.5t264 30h871q45 0 45 -45v-183q0 -45 -45 -45h-871q-80 0 -132 -13t-83 -46t-43 -86t-12 -135v-39h883q98 0 166.5 -23.5t111.5 -67.5t61.5 -108.5t18.5 -146.5v-150q0 -164 -85 -255t-288 -91h-598q-156 0 -264.5 28.5 t-177 93t-100 168t-31.5 251.5zM422 543q0 -80 12 -134.5t43 -86t83 -45t132 -13.5h549q66 0 93.5 30t27.5 93v109q0 63 -26.5 91.5t-92.5 28.5h-821v-73z" />
<glyph unicode="7" horiz-adv-x="1697" d="M47 1221v168q0 45 47 45h1401q66 0 98.5 -35t32.5 -90v-142q0 -66 -17.5 -103.5t-62.5 -86.5l-872 -938q-20 -23 -38 -31t-50 -8h-287q-25 0 -31 19.5t8 35.5l1008 1061q8 10 12 17.5t4 17.5v10q0 14 -18 15h-1188q-47 0 -47 45z" />
<glyph unicode="8" horiz-adv-x="1851" d="M119 354v119q0 182 137 260q-127 86 -127 264v99q0 86 21.5 149.5t67.5 105.5t120 62.5t180 20.5h815q211 0 300 -84t89 -254v-99q0 -178 -127 -264q137 -78 138 -260v-119q0 -82 -18.5 -147.5t-61.5 -111.5t-113 -70.5t-170 -24.5h-889q-102 0 -170.5 24.5t-111.5 70.5 t-61.5 111.5t-18.5 147.5zM424 395q0 -66 35 -95.5t116 -29.5h701q82 0 118 30t36 95v90q0 63 -38 96t-141 33h-651q-102 0 -139 -32.5t-37 -96.5v-90zM426 956q0 -59 36 -90.5t138 -31.5h651q102 0 138 31.5t36 90.5v76q0 63 -34.5 97t-116.5 34h-696q-82 0 -117 -33.5 t-35 -97.5v-76z" />
<glyph unicode="9" horiz-adv-x="1777" d="M113 930v135q0 186 95 277.5t296 91.5h581q156 0 264.5 -30t177 -94.5t100.5 -167t32 -249.5v-352q0 -147 -32 -251t-100.5 -168.5t-177 -93t-264.5 -28.5h-878q-45 0 -45 45v182q0 45 45 45h878q80 0 132.5 13.5t83 45t43 86t12.5 136.5v45h-867q-377 0 -376 332z M412 954q0 -63 26.5 -97t91.5 -34h826v68q0 80 -12.5 134t-43 86t-83 45t-132.5 13h-555q-63 0 -90.5 -29.5t-27.5 -92.5v-93z" />
<glyph unicode=":" horiz-adv-x="546" d="M127 164zM127 209v197q0 45 47 45h201q45 0 45 -45v-197q0 -45 -45 -45h-201q-47 0 -47 45zM127 821v197q0 45 47 45h201q45 0 45 -45v-197q0 -45 -45 -45h-201q-47 0 -47 45z" />
<glyph unicode=";" horiz-adv-x="546" d="M127 0zM127 207v199q0 45 47 45h201q45 0 45 -45v-174q0 -27 -2 -45.5t-12 -51.5l-76 -278q-8 -27 -19.5 -36t-36.5 -9h-81q-49 0 -39 45l55 305h-35q-47 0 -47 45zM127 821v197q0 45 47 45h201q45 0 45 -45v-197q0 -45 -45 -45h-201q-47 0 -47 45z" />
<glyph unicode="&#x3c;" horiz-adv-x="1255" d="M86 657v123q0 47 20.5 73t69.5 44l942 348q20 8 35.5 -2t15.5 -33v-123q0 -35 -28 -43l-811 -296q-16 -6 -17 -23v-12q0 -16 17 -23l811 -297q29 -8 28 -43v-123q0 -23 -15 -32t-36 -2l-942 348q-49 18 -69.5 43.5t-20.5 72.5z" />
<glyph unicode="=" horiz-adv-x="1255" d="M86 412v120q0 37 37 37h1010q37 0 36 -37v-120q0 -37 -36 -37h-1010q-37 0 -37 37zM86 901v123q0 37 37 37h1010q37 0 36 -37v-123q0 -37 -36 -37h-1010q-37 0 -37 37z" />
<glyph unicode="&#x3e;" horiz-adv-x="1255" d="M84 227v123q0 35 29 43l811 297q16 6 16 23v12q0 16 -16 23l-811 296q-29 8 -29 43v123q0 23 15.5 32t35.5 3l942 -348q49 -18 69.5 -44t20.5 -73v-123q0 -47 -20.5 -72.5t-69.5 -43.5l-942 -348q-20 -8 -35.5 2t-15.5 32z" />
<glyph unicode="?" horiz-adv-x="1292" d="M59 1292v168q0 45 45 45h842q145 0 212 -70.5t67 -205.5v-86q0 -61 -9.5 -107.5t-32 -81t-58 -62.5t-89.5 -52l-338 -162q-31 -14 -41 -34.5t-14 -49.5l-6 -51q-4 -31 -15.5 -41t-46.5 -10h-90q-33 0 -45 12t-12 39l-2 100q0 53 15.5 99t74.5 77l348 180q63 31 64 109v53 q0 86 -88 86h-736q-45 0 -45 45zM385 45v197q0 45 45 45h201q47 0 47 -45v-197q0 -45 -47 -45h-201q-45 0 -45 45z" />
<glyph unicode="@" horiz-adv-x="1792" d="M119 84v813q0 385 377 385h759q416 0 416 -403v-459q0 -195 -77.5 -279t-245.5 -84h-367q-307 0 -307 287v186q0 285 301 285h473v55q0 203 -209 203h-694q-178 0 -178 -196v-793q0 -301 284 -301h977q33 0 33 -31v-170q0 -33 -33 -33h-975q-535 0 -534 535zM897 383 q0 -137 133 -137h250q86 0 127 43t41 139v211h-418q-133 0 -133 -139v-117z" />
<glyph unicode="A" horiz-adv-x="1996" d="M32 14q-1 4 -2 9q0 11 7 24l672 1231q51 92 100 124t115 32h120q78 0 131.5 -32t104.5 -124l678 -1231q7 -13 7 -24q0 -5 -2 -9q-5 -14 -30 -14h-260q-35 0 -47 27l-145 264h-963l-141 -264q-14 -27 -47 -27h-267q-27 0 -31 14zM647 528h705l-326 600q-8 14 -22 15h-13 q-14 0 -22 -15z" />
<glyph unicode="B" horiz-adv-x="1882" d="M135 61v1311q0 61 62 62h1179q211 0 300 -84t89 -254v-99q0 -172 -131 -260q141 -82 142 -264v-119q0 -82 -18.5 -147.5t-60.5 -111.5t-111.5 -70.5t-172.5 -24.5h-1216q-61 0 -62 61zM449 309q0 -26 24 -26h2h840q82 0 116.5 29.5t34.5 95.5v77q0 63 -37.5 96t-140.5 33 h-839v-305zM449 838h839q102 0 139 30.5t37 89.5v70q0 63 -35.5 93t-115.5 30h-838q-27 0 -26 -27v-286z" />
<glyph unicode="C" horiz-adv-x="1744" d="M119 541v352q0 147 31.5 249.5t100 167t177.5 94.5t264 30h924q45 0 45 -45v-201q0 -47 -45 -47h-911q-80 0 -132.5 -13.5t-83 -45t-44 -85t-13.5 -135.5v-291q0 -82 13.5 -136t44 -86t83 -45t132.5 -13h911q45 0 45 -45v-201q0 -45 -45 -45h-924q-156 0 -264.5 28.5 t-177 93t-100 168t-31.5 251.5z" />
<glyph unicode="D" horiz-adv-x="1902" d="M135 61v1311q0 61 62 62h958q166 0 285 -34t194.5 -104.5t111.5 -180t36 -259.5v-278q0 -150 -36 -259.5t-111.5 -180t-194.5 -104.5t-285 -34h-958q-61 0 -62 61zM449 311q0 -26 24 -26h2h672q90 0 151.5 16t99.5 53t54 98.5t16 151.5v225q0 90 -16 151.5t-54 98.5 t-99.5 53.5t-151.5 16.5h-672q-27 0 -26 -29v-809z" />
<glyph unicode="E" horiz-adv-x="1740" d="M119 541v352q0 147 31.5 249.5t100 167t177.5 94.5t264 30h901q47 0 47 -45v-195q0 -45 -47 -45h-895q-80 0 -132 -13.5t-83.5 -45t-44 -86t-12.5 -134.5v-20h1157q45 0 45 -45v-162q0 -45 -45 -45h-1157v-35q0 -80 12.5 -134t44 -86t83.5 -45t132 -13h895q47 0 47 -45 v-195q0 -45 -47 -45h-901q-156 0 -264.5 28.5t-177 93t-100 168t-31.5 251.5z" />
<glyph unicode="F" horiz-adv-x="1708" d="M119 45v848q0 147 31.5 249.5t100 167t177.5 94.5t264 30h901q47 0 47 -45v-195q0 -45 -47 -45h-888q-80 0 -132.5 -13.5t-83 -45t-44 -86t-13.5 -134.5v-41h1151q45 0 45 -45v-161q0 -45 -45 -45h-1151v-533q0 -45 -45 -45h-221q-47 0 -47 45z" />
<glyph unicode="G" horiz-adv-x="1896" d="M119 541v352q0 147 31.5 249.5t100 167t177.5 94.5t264 30h1039q45 0 45 -45v-201q0 -47 -45 -47h-1026q-80 0 -132.5 -13.5t-83 -45t-44 -85t-13.5 -135.5v-295q0 -82 13.5 -136t44 -86t83 -45t132.5 -13h675q53 0 78 27.5t25 97.5v166q0 27 -25 26h-600q-45 0 -45 47 v154q0 47 45 47h854q61 0 62 -61v-478q0 -172 -66 -242.5t-188 -70.5h-828q-156 0 -264.5 28.5t-177 93t-100 168t-31.5 251.5z" />
<glyph unicode="H" horiz-adv-x="1855" d="M135 45v1344q0 45 47 45h221q45 0 46 -45v-533h958v533q0 45 45 45h221q47 0 47 -45v-1344q0 -45 -47 -45h-221q-45 0 -45 45v545h-958v-545q0 -45 -46 -45h-221q-47 0 -47 45z" />
<glyph unicode="I" horiz-adv-x="585" d="M135 45v1344q0 45 47 45h221q45 0 46 -45v-1344q0 -45 -46 -45h-221q-47 0 -47 45z" />
<glyph unicode="J" horiz-adv-x="1599" d="M47 45v201q0 45 47 45h789q80 0 132 13t82.5 45t43 86t12.5 136v818q0 45 47 45h221q45 0 45 -45v-848q0 -147 -30.5 -251t-99 -168.5t-178 -93t-265.5 -28.5h-799q-47 0 -47 45z" />
<glyph unicode="K" horiz-adv-x="1748" d="M135 45v1344q0 45 47 45h221q45 0 46 -45v-545h288q49 0 82 3t57.5 13t45 28.5t43.5 47.5l352 471q10 14 20.5 20.5t38.5 6.5h254q27 0 32 -17.5t-5 -32.5l-397 -514q-35 -47 -65 -79.5t-58 -57.5q80 -49 155 -147l420 -533q6 -8 6 -23v-8q-2 -22 -32 -22h-263 q-27 0 -37 6t-20 21l-377 487q-41 53 -88 72.5t-141 19.5h-311v-561q0 -45 -46 -45h-221q-47 0 -47 45z" />
<glyph unicode="L" horiz-adv-x="1640" d="M131 541v848q0 45 47 45h221q45 0 45 -45v-818q0 -82 13.5 -136t44 -86t83 -45t132.5 -13h829q45 0 45 -45v-201q0 -45 -45 -45h-841q-156 0 -264.5 28.5t-177 93t-100.5 168t-32 251.5z" />
<glyph unicode="M" horiz-adv-x="2445" d="M135 45v1176q0 117 37 165t145 48h224q45 0 77.5 -6.5t57 -24t44 -47t40.5 -78.5l426 -983q8 -18 28 -19h25q20 0 29 19l426 983q20 49 39.5 78.5t44 47t56.5 24t77 6.5h219q106 0 143 -48.5t37 -164.5v-1176q0 -45 -47 -45h-209q-45 0 -45 45v1069q0 20 -16 21h-19 q-20 0 -26 -17l-414 -917q-25 -55 -50.5 -93t-55 -63t-67.5 -35t-89 -10h-98q-51 0 -89 10t-68 35t-55.5 62.5t-50.5 93.5l-413 917q-6 16 -27 17h-18q-16 0 -17 -21v-1069q0 -45 -45 -45h-209q-47 0 -47 45z" />
<glyph unicode="N" horiz-adv-x="2002" d="M135 45v1176q0 125 45 169t139 44h181q49 0 81.5 -4.5t57.5 -17.5t47.5 -36.5t50.5 -62.5l762 -1000q8 -14 27 -14h18q16 0 17 20v1070q0 45 45 45h215q45 0 45 -45v-1176q0 -125 -45 -169t-140 -44h-176q-47 0 -78.5 4t-56 16.5t-48.5 36t-54 64.5l-764 999 q-12 14 -27 15h-18q-16 0 -17 -21v-1069q0 -45 -45 -45h-215q-47 0 -47 45z" />
<glyph unicode="O" horiz-adv-x="2017" d="M119 541v352q0 147 31.5 249.5t100 167t177.5 94.5t264 30h633q156 0 265.5 -30t178 -94.5t99 -167t30.5 -249.5v-352q0 -147 -30.5 -251t-99 -168.5t-178 -93t-265.5 -28.5h-633q-156 0 -264.5 28.5t-177 93t-100 168t-31.5 251.5zM432 563q0 -80 13.5 -134t44 -86 t83 -45t132.5 -13h608q80 0 132 13t83 45t44 86t13 134v307q0 80 -13 134.5t-44 86t-83 45t-132 13.5h-608q-80 0 -132.5 -13.5t-83 -45t-44 -86t-13.5 -134.5v-307z" />
<glyph unicode="P" horiz-adv-x="1804" d="M135 45v1327q0 61 62 62h1099q236 0 338.5 -106.5t102.5 -315.5v-152q0 -209 -102.5 -315.5t-338.5 -106.5h-847v-393q0 -45 -46 -45h-221q-47 0 -47 45zM449 709h784q104 0 147 45t43 137v78q0 92 -43 137t-147 45h-758q-27 0 -26 -25v-417z" />
<glyph unicode="Q" horiz-adv-x="2017" d="M119 575v318q0 147 31.5 249.5t100 167t177.5 94.5t264 30h633q156 0 265.5 -30t178 -94.5t99 -167t30.5 -249.5v-318q0 -250 -93 -375.5t-310 -154.5l236 -326q8 -10 5 -30.5t-32 -20.5h-262q-27 0 -37 6.5t-21 18.5l-235 342h-457q-156 0 -264.5 28.5t-177 93t-100 168 t-31.5 250.5zM432 598q0 -80 13.5 -134t44 -86t83 -45.5t132.5 -13.5h608q80 0 132 13.5t83 45.5t44 86t13 134v272q0 80 -13 134.5t-44 86t-83 45t-132 13.5h-608q-80 0 -132.5 -13.5t-83 -45t-44 -86t-13.5 -134.5v-272z" />
<glyph unicode="R" horiz-adv-x="1853" d="M135 45v1327q0 61 62 62h1099q236 0 338.5 -106.5t102.5 -315.5v-117q0 -176 -72 -278.5t-233 -131.5l350 -434q7 -7 7 -20q0 -5 -1 -11q-4 -20 -33 -20h-264q-27 0 -37 6t-20 21l-324 426h-661v-408q0 -45 -46 -45h-221q-47 0 -47 45zM449 702h784q104 0 147 45.5 t43 137.5v86q0 92 -43 137t-147 45h-758q-27 0 -26 -25v-426z" />
<glyph unicode="S" horiz-adv-x="1755" d="M111 950v150q0 150 88 242t274 92h1086q45 0 45 -45v-195q0 -45 -45 -45h-1027q-59 0 -83.5 -31t-24.5 -84v-69q0 -115 106 -115h768q178 0 268.5 -91t90.5 -261v-164q0 -150 -88 -242t-275 -92h-1134q-47 0 -47 45v195q0 45 47 45h1075q59 0 83.5 30.5t24.5 83.5v84 q0 115 -106 115h-768q-178 0 -268 91t-90 261z" />
<glyph unicode="T" horiz-adv-x="1787" d="M47 1188v201q0 45 47 45h1600q47 0 47 -45v-201q0 -47 -47 -47h-643v-1096q0 -45 -45 -45h-224q-45 0 -45 45v1096h-643q-47 0 -47 47z" />
<glyph unicode="U" horiz-adv-x="2000" d="M131 541v848q0 45 47 45h221q45 0 45 -45v-818q0 -82 13.5 -136t44 -86t83 -45t132.5 -13h567q80 0 132 13t83 45t43 86t12 136v818q0 45 45 45h224q45 0 45 -45v-848q0 -147 -31 -251t-99.5 -168.5t-178 -93t-265.5 -28.5h-589q-156 0 -264.5 28.5t-177 93t-100.5 168 t-32 251.5z" />
<glyph unicode="V" horiz-adv-x="1996" d="M32 1420q5 14 31 14h259q20 0 29 -6.5t18 -20.5l600 -1102q6 -14 24 -14h11q14 0 22 14l592 1102q12 27 47 27h268q25 0 30 -14q2 -4 2 -9q0 -11 -7 -25l-672 -1230q-51 -94 -100 -125t-115 -31h-119q-80 0 -132 30.5t-103 125.5l-680 1230q-7 13 -7 24q0 5 2 10z" />
<glyph unicode="W" horiz-adv-x="2668" d="M42 1420q3 14 19 14h275q20 0 29 -27l331 -1102q2 -14 17 -14h10q12 0 16 14l332 1010q23 70 59.5 94.5t92.5 24.5h202q68 0 104 -27t58 -92l340 -1010q4 -14 17 -14h12q12 0 16 14l324 1102q4 16 13 21.5t20 5.5h276q15 0 19 -14q1 -5 2 -11q0 -11 -5 -23l-393 -1230 q-29 -92 -63.5 -124t-93.5 -32h-240q-59 0 -93 33t-65 123l-321 972q-2 14 -17 15h-8q-14 0 -16 -15l-326 -972q-31 -90 -64.5 -123t-93.5 -33h-233q-35 0 -60.5 6t-46 23.5t-36 48.5t-29.5 78l-377 1230q-4 13 -4 24q0 5 1 10z" />
<glyph unicode="X" horiz-adv-x="1824" d="M36 20q-1 3 -1 6q0 15 12 27l674 701l-608 626q-12 14 -10.5 34t30.5 20h281q25 0 39 -7.5t26 -21.5l447 -475l473 475q12 14 26.5 21.5t38.5 7.5h267q29 0 31.5 -19.5t-11.5 -34.5l-629 -637l658 -690q12 -12 12 -27q0 -2 -1 -6q-3 -20 -32 -20h-280q-25 0 -39.5 6 t-26.5 23l-506 530l-508 -530q-14 -16 -27.5 -22.5t-39.5 -6.5h-266q-27 0 -30 20z" />
<glyph unicode="Y" horiz-adv-x="1835" d="M26 1420q5 14 23 14h275q33 0 49 -25l547 -739l550 739q16 25 50 25h268q16 0 22 -14q3 -5 3 -10q0 -8 -7 -17l-735 -955v-393q0 -45 -45 -45h-221q-47 0 -47 45v393l-727 955q-7 9 -7 18q0 5 2 9z" />
<glyph unicode="Z" horiz-adv-x="1748" d="M98 154v186q0 37 4 62.5t14.5 45t29 34t49.5 30.5l1079 573q18 10 18 31v14q0 18 -20 19h-1114q-47 0 -47 45v195q0 45 47 45h1325q162 0 162 -156v-186q0 -37 -5.5 -62.5t-16.5 -45t-30.5 -34t-50.5 -30.5l-1083 -572q-18 -10 -19 -31v-14q0 -18 21 -18h1124 q47 0 47 -45v-195q0 -45 -47 -45h-1325q-86 0 -124 38t-38 116z" />
<glyph unicode="[" horiz-adv-x="927" d="M283 -266v1915q0 96 39.5 141t126.5 45h370q25 0 25 -29v-139q0 -29 -25 -29h-293q-49 0 -49 -55v-1784q0 -55 49 -55h293q25 0 25 -29v-139q0 -29 -25 -29h-370q-86 0 -126 45.5t-40 141.5z" />
<glyph unicode="\" horiz-adv-x="847" d="M12 1632q-14 37 25 37h143q20 0 26.5 -8t12.5 -27l615 -1898q12 -37 -25 -37h-143q-20 0 -26.5 8t-12.5 25z" />
<glyph unicode="]" horiz-adv-x="927" d="M84 -285q0 29 25 29h292q49 0 50 55v1784q0 55 -50 55h-292q-25 0 -25 29v139q0 29 25 29h370q86 0 126 -45t40 -141v-1915q0 -96 -40 -141.5t-126 -45.5h-370q-25 0 -25 29v139z" />
<glyph unicode="^" horiz-adv-x="1255" d="M100 379l349 962q18 53 45.5 73t70.5 20h123q45 0 71.5 -19.5t45.5 -73.5l348 -962q8 -23 -2 -37t-33 -14h-121q-37 0 -45 26l-297 836q-4 14 -22 14h-12q-18 0 -23 -14l-297 -836q-8 -27 -43 -26h-123q-23 0 -33 14t-2 37z" />
<glyph unicode="_" horiz-adv-x="1314" d="M12 -184q0 37 37 37h1219q37 0 37 -37v-123q0 -37 -37 -37h-1219q-37 0 -37 37v123z" />
<glyph unicode="`" horiz-adv-x="804" d="M172 1659q10 12 33 12h180q41 0 64 -47l186 -379q10 -23 1 -35t-34 -12h-153q-25 0 -38.5 12.5t-25.5 34.5l-211 379q-12 23 -2 35z" />
<glyph unicode="a" d="M84 291v98q0 63 15.5 113.5t52 85.5t97 52t150.5 17h834v39q0 49 -10.5 84t-35 56.5t-67.5 32t-110 10.5h-856q-37 0 -37 36v172q0 37 37 37h884q137 0 231.5 -23.5t151 -73.5t81 -129t24.5 -189v-545q0 -49 -7.5 -81t-24.5 -50.5t-46 -25.5t-74 -7h-975 q-90 0 -150.5 17.5t-97 52t-52 90t-15.5 131.5zM369 332q0 -55 25.5 -81t88.5 -26h691q33 0 46 15.5t13 54.5v180h-750q-63 0 -88.5 -25.5t-25.5 -74.5v-43z" />
<glyph unicode="b" horiz-adv-x="1783" d="M123 414v1077q0 45 47 45h201q45 0 45 -45v-367h768q137 0 231 -23.5t150.5 -73.5t81 -129t24.5 -189v-295q0 -111 -24.5 -190t-81 -129t-150.5 -72.5t-231 -22.5h-574q-139 0 -232 22.5t-149.5 72.5t-81 129t-24.5 190zM416 471q0 -66 10 -109t35.5 -68.5t68.5 -36.5 t109 -11h516q68 0 111 11t68.5 36.5t35.5 69t10 108.5v182q0 63 -10 107.5t-35.5 70t-68.5 37t-111 11.5h-739v-408z" />
<glyph unicode="c" horiz-adv-x="1492" d="M80 414v295q0 111 24.5 189.5t81 128.5t149.5 73.5t232 23.5h824q37 0 36 -37v-172q0 -37 -36 -36h-795q-68 0 -111 -11.5t-67.5 -37t-34.5 -69.5t-10 -108v-182q0 -66 10 -109t34.5 -68.5t67.5 -36.5t111 -11h795q37 0 36 -37v-172q0 -37 -36 -37h-824q-139 0 -232 22.5 t-149.5 72.5t-81 129t-24.5 190z" />
<glyph unicode="d" horiz-adv-x="1783" d="M111 414v295q0 111 24.5 189.5t80.5 128.5t149.5 73.5t232.5 23.5h770v367q0 45 45 45h201q45 0 45 -45v-1077q0 -111 -24.5 -190t-81 -129t-150.5 -72.5t-232 -22.5h-573q-139 0 -232.5 22.5t-149.5 72.5t-80.5 129t-24.5 190zM403 471q0 -66 10.5 -109t36 -68.5 t68.5 -36.5t109 -11h516q68 0 110.5 11t68.5 36.5t36 69t10 108.5v408h-741q-66 0 -109 -11.5t-68.5 -37t-36 -69.5t-10.5 -108v-182z" />
<glyph unicode="e" d="M84 414v295q0 111 24.5 189.5t81 128.5t149.5 73.5t232 23.5h600q104 0 173 -17t109 -57t56.5 -104.5t16.5 -157.5v-194q0 -66 -29 -91.5t-88 -25.5h-1034v-49q0 -96 46 -139t179 -43h854q37 0 37 -37v-172q0 -37 -37 -37h-883q-139 0 -232 22.5t-149.5 72.5t-81 129 t-24.5 190zM375 659h829q35 0 35 35v86q0 63 -26.5 90t-98.5 27h-514q-133 0 -179 -42t-46 -140v-56z" />
<glyph unicode="f" horiz-adv-x="1003" d="M35 920v167q0 37 37 37h196v43q0 109 18.5 186t65.5 126t127 72.5t203 23.5h248q37 0 37 -37v-168q0 -37 -37 -37h-199q-100 0 -136 -40t-36 -126v-43h359q37 0 36 -37v-167q0 -37 -36 -37h-359v-838q0 -45 -45 -45h-201q-45 0 -45 45v838h-196q-37 0 -37 37z" />
<glyph unicode="g" horiz-adv-x="1783" d="M111 492v215q0 113 24.5 191.5t80.5 128.5t149.5 73.5t232.5 23.5h573q139 0 232.5 -23.5t151 -72.5t81 -128t23.5 -189v-746q0 -113 -23.5 -191.5t-81 -129t-150.5 -74t-233 -23.5h-964q-37 0 -37 37v172q0 37 37 37h936q68 0 110.5 11.5t68.5 37t36 69.5t10 109v54 h-770q-139 0 -232.5 23.5t-149.5 73.5t-80.5 129t-24.5 192zM403 494q0 -53 10.5 -89t36 -59.5t68.5 -34t109 -10.5h741v383q0 109 -46 154t-179 45h-516q-66 0 -109 -10.5t-68.5 -34t-36 -60.5t-10.5 -88v-196z" />
<glyph unicode="h" horiz-adv-x="1800" d="M131 45v1446q0 45 45 45h201q45 0 45 -45v-367h766q137 0 231 -23.5t150.5 -73.5t81 -129t24.5 -189v-664q0 -45 -45 -45h-200q-45 0 -46 45v594q0 63 -8 107.5t-31.5 70t-64.5 36.5t-106 11h-752v-819q0 -45 -45 -45h-201q-45 0 -45 45z" />
<glyph unicode="i" horiz-adv-x="552" d="M129 0zM129 1300v195q0 45 47 45h201q45 0 45 -45v-195q0 -47 -45 -47h-201q-47 0 -47 47zM131 45v1032q0 47 45 47h201q45 0 45 -47v-1032q0 -45 -45 -45h-201q-45 0 -45 45z" />
<glyph unicode="j" horiz-adv-x="577" d="M-215 -244q0 37 37 37h133q61 0 100 11.5t62.5 37t32 68.5t8.5 106v1061q0 47 47 47h201q45 0 45 -47v-1118q0 -111 -22.5 -188.5t-77 -128t-144.5 -73t-223 -22.5h-162q-37 0 -37 37v172zM0 0zM158 1300v195q0 45 47 45h201q45 0 45 -45v-195q0 -47 -45 -47h-201 q-47 0 -47 47z" />
<glyph unicode="k" horiz-adv-x="1626" d="M127 45v1446q0 45 47 45h201q45 0 45 -45v-811h377q43 0 72.5 3t52 12.5t40 25.5t37.5 45l230 324q12 18 25.5 26t35.5 8h232q23 0 28.5 -17t-8.5 -38l-264 -362q-61 -84 -127 -132q84 -47 145 -131l291 -393q8 -10 8 -21q0 -6 -3 -12q-7 -18 -29 -18h-230q-27 0 -39 6 t-24 23l-250 344q-37 49 -79 67.5t-126 18.5h-395v-414q0 -45 -45 -45h-201q-47 0 -47 45z" />
<glyph unicode="l" horiz-adv-x="552" d="M131 45v1446q0 45 45 45h201q45 0 45 -45v-1446q0 -45 -45 -45h-201q-45 0 -45 45z" />
<glyph unicode="m" horiz-adv-x="2267" d="M123 45v664q0 111 24.5 189.5t81 128.5t149.5 73.5t232 23.5h1047q137 0 230 -23.5t150.5 -73.5t81 -129t23.5 -189v-664q0 -45 -45 -45h-201q-45 0 -45 45v594q0 63 -8 107.5t-30.5 70t-63.5 36.5t-109 11h-360v-819q0 -45 -47 -45h-201q-45 0 -45 45v819h-348 q-66 0 -109 -11t-68.5 -36.5t-35.5 -70t-10 -107.5v-594q0 -45 -45 -45h-201q-47 0 -47 45z" />
<glyph unicode="n" horiz-adv-x="1810" d="M123 45v664q0 111 24.5 189.5t81 128.5t149.5 73.5t232 23.5h588q137 0 231.5 -23.5t150.5 -73.5t81 -129t25 -189v-664q0 -45 -46 -45h-200q-45 0 -45 45v594q0 63 -8.5 107.5t-32 70t-64.5 36.5t-106 11h-545q-66 0 -109 -11t-68.5 -36.5t-35.5 -70t-10 -107.5v-594 q0 -45 -45 -45h-201q-47 0 -47 45z" />
<glyph unicode="o" horiz-adv-x="1777" d="M111 414v295q0 111 24.5 189.5t80.5 128.5t149.5 73.5t232.5 23.5h580q137 0 231 -23.5t150.5 -73.5t81 -129t24.5 -189v-295q0 -111 -24.5 -190t-81 -129t-150.5 -72.5t-231 -22.5h-580q-139 0 -232.5 22.5t-149.5 72.5t-80.5 129t-24.5 190zM403 465q0 -66 10.5 -109 t36 -68.5t68.5 -36.5t109 -11h522q68 0 111 11t68.5 36.5t35.5 68.5t10 109v194q0 63 -10 106.5t-35.5 70t-68.5 37t-111 10.5h-522q-66 0 -109 -10.5t-68.5 -37t-36 -69.5t-10.5 -107v-194z" />
<glyph unicode="p" horiz-adv-x="1783" d="M123 -408v1117q0 111 24.5 189.5t81 128.5t149.5 73.5t232 23.5h574q137 0 231 -23.5t150.5 -73.5t81 -129t24.5 -189v-295q0 -111 -24.5 -190t-81 -129t-150.5 -72.5t-231 -22.5h-768v-408q0 -45 -45 -45h-201q-47 0 -47 45zM416 246h739q68 0 111 10t68.5 36.5t35.5 70 t10 108.5v182q0 63 -10 107.5t-35.5 70t-68.5 37t-111 11.5h-516q-66 0 -109 -11.5t-68.5 -37t-35.5 -69.5t-10 -108v-407z" />
<glyph unicode="q" horiz-adv-x="1783" d="M111 414v295q0 111 24.5 189.5t80.5 128.5t149.5 73.5t232.5 23.5h573q137 0 231.5 -23.5t151 -73.5t81 -129t24.5 -189v-1117q0 -45 -45 -45h-201q-45 0 -45 45v408h-770q-139 0 -232.5 22.5t-149.5 72.5t-80.5 129t-24.5 190zM403 471q0 -66 10.5 -109t36 -69.5 t68.5 -36.5t109 -10h741v407q0 63 -10 107.5t-36 70t-69 37t-110 11.5h-516q-66 0 -109 -11.5t-68.5 -37t-36 -69.5t-10.5 -108v-182z" />
<glyph unicode="r" horiz-adv-x="1255" d="M123 45v664q0 111 24.5 189.5t81 128.5t149.5 73.5t232 23.5h574q37 0 37 -37v-172q0 -37 -37 -36h-545q-66 0 -109 -11.5t-68.5 -37t-35.5 -69.5t-10 -108v-608q0 -45 -45 -45h-201q-47 0 -47 45z" />
<glyph unicode="s" horiz-adv-x="1603" d="M104 37v164q0 37 37 37h971q63 0 89 22.5t26 75.5v55q0 41 -25.5 63.5t-89.5 22.5h-688q-172 0 -246 70.5t-74 206.5v90q0 63 16.5 115.5t54.5 89t99.5 56t151.5 19.5h999q37 0 37 -37v-163q0 -37 -37 -37h-923q-63 0 -88 -23.5t-25 -68.5v-31q0 -41 24.5 -64.5 t88.5 -23.5h690q172 0 245.5 -72t73.5 -203v-114q0 -68 -16 -121t-54 -90t-99.5 -56.5t-151.5 -19.5h-1049q-37 0 -37 37z" />
<glyph unicode="t" horiz-adv-x="1003" d="M35 920v167q0 37 37 37h194v271q0 45 45 45h203q45 0 45 -45v-271h359q37 0 36 -37v-167q0 -37 -36 -37h-359v-475q0 -86 35 -126t137 -40h199q37 0 37 -37v-168q0 -37 -37 -37h-248q-123 0 -203 22.5t-128 71.5t-66.5 127t-18.5 187v475h-194q-37 0 -37 37z" />
<glyph unicode="u" horiz-adv-x="1794" d="M123 414v663q0 47 47 47h201q45 0 45 -47v-592q0 -66 8 -108.5t30.5 -68t63.5 -37t109 -11.5h526q68 0 111 11.5t68.5 37t35.5 68.5t10 108v592q0 47 45 47h201q45 0 45 -47v-663q0 -111 -24.5 -190t-81 -129t-150.5 -72.5t-231 -22.5h-572q-139 0 -232 22.5t-149.5 72.5 t-81 129t-24.5 190z" />
<glyph unicode="v" horiz-adv-x="1699" d="M32 1108q7 16 29 16h236q35 0 49 -28l481 -846q8 -12 23 -12h8q14 0 23 12l483 846q8 14 18.5 21t30.5 7h227q23 0 30 -15q3 -6 3 -13q0 -10 -6 -23l-561 -981q-29 -51 -65.5 -71.5t-106.5 -20.5h-168q-68 0 -104.5 20.5t-65.5 71.5l-561 981q-6 12 -6 22q0 7 3 13z" />
<glyph unicode="w" horiz-adv-x="2385" d="M37 1075q-3 12 -3 20.5t3 15.5q6 13 35 13h231q37 0 47 -32l264 -842q6 -14 21 -14h8q18 0 21 14l276 776q20 55 48 76.5t83 21.5h244q55 0 82.5 -21.5t48.5 -76.5l274 -776q2 -14 21 -14h8q14 0 20 14l267 842q6 32 45 32h2h231q27 0 34 -13q4 -7 4 -17q0 -8 -3 -19 l-311 -948q-25 -78 -58.5 -102.5t-99.5 -24.5h-258q-53 0 -82 27.5t-55 99.5l-271 747q-4 12 -18 13h-12q-16 0 -19 -13l-268 -747q-27 -72 -55.5 -99.5t-81.5 -27.5h-258q-66 0 -99.5 24.5t-58.5 102.5z" />
<glyph unicode="x" horiz-adv-x="1619" d="M32 18q-1 4 -1 9q0 14 12 26l578 531l-529 485q-16 16 -12 35.5t33 19.5h260q23 0 35 -6t24 -18l404 -369l413 369q10 12 22.5 18t35.5 6h231q29 0 34 -19.5t-11 -35.5l-547 -502l563 -514q11 -12 11 -26q0 -5 -1 -9q-4 -18 -33 -18h-260q-23 0 -36 6t-23 17l-434 397 l-447 -397q-10 -10 -22.5 -16.5t-34.5 -6.5h-231q-29 0 -34 18z" />
<glyph unicode="y" horiz-adv-x="1654" d="M32 1108q7 16 29 16h236q35 0 49 -28l455 -789q16 -29 25.5 -38t23.5 -9l481 836q14 28 47 28h2h230q23 0 30 -15q3 -6 3 -13q0 -10 -7 -23l-786 -1386q-41 -72 -116 -106t-208 -34h-143q-37 0 -37 37v168q0 37 37 37h121q78 0 104 47l111 195q-51 4 -79 24.5t-52 63.5 l-553 954q-6 12 -6 22q0 7 3 13z" />
<glyph unicode="z" horiz-adv-x="1501" d="M90 127v152q0 63 18.5 92.5t73.5 54.5l910 399q16 6 16 27v14q0 16 -18 17h-953q-37 0 -37 37v167q0 37 37 37h1133q74 0 107.5 -31.5t33.5 -97.5v-151q0 -33 -4 -54.5t-14.5 -38t-28.5 -28.5t-45 -25l-909 -399q-10 -4 -13.5 -11t-3.5 -18v-14q0 -14 19 -14h952 q37 0 37 -37v-168q0 -37 -37 -37h-1133q-74 0 -107.5 30.5t-33.5 96.5z" />
<glyph unicode="{" horiz-adv-x="927" d="M109 627v125q0 37 36 36h93q61 0 82.5 29t21.5 82v565q0 197 81 284t259 87h137q25 0 25 -29v-139q0 -29 -25 -29h-129q-86 0 -119.5 -38.5t-33.5 -135.5v-559q0 -70 -26 -125t-69 -92q43 -37 69 -91t26 -124v-555q0 -96 33.5 -135t119.5 -39h129q25 0 25 -29v-139 q0 -29 -25 -29h-137q-178 0 -259 87t-81 284v559q0 53 -21.5 83t-82.5 30h-93q-37 0 -36 37z" />
<glyph unicode="|" horiz-adv-x="866" d="M334 -262v1894q0 37 37 37h123q37 0 36 -37v-1894q0 -37 -36 -37h-123q-37 0 -37 37z" />
<glyph unicode="}" horiz-adv-x="927" d="M84 -285q0 29 25 29h129q86 0 119.5 39t33.5 135v559q0 70 25.5 125t68.5 92q-43 37 -68.5 91.5t-25.5 123.5v555q0 96 -33.5 135t-119.5 39h-129q-25 0 -25 29v139q0 29 25 29h137q178 0 259 -87t81 -284v-559q0 -53 21.5 -82.5t82.5 -29.5h92q37 0 37 -37v-125 q0 -37 -37 -37h-92q-61 0 -82.5 -28.5t-21.5 -82.5v-565q0 -197 -81 -284t-259 -87h-137q-25 0 -25 29v139z" />
<glyph unicode="~" horiz-adv-x="1255" d="M86 662v120q0 25 9 40.5t26 29.5q37 31 100.5 51.5t130.5 20.5q98 0 172 -30t133 -65q47 -27 102.5 -45t125.5 -18q47 0 87 15.5t89 58.5q23 18 36 27.5t33 9.5q39 0 39 -37v-119q0 -27 -10 -42t-26 -30q-37 -29 -100.5 -49t-131.5 -20q-96 0 -170 28.5t-133 63.5 q-47 27 -102.5 45t-124.5 18q-47 0 -87 -14t-91 -59q-23 -18 -35.5 -27.5t-32.5 -9.5q-39 0 -39 37z" />
<glyph unicode="&#xa1;" horiz-adv-x="544" d="M111 -403l57 921q2 45 45 45h119q43 0 45 -45l57 -921q0 -47 -47 -48h-229q-47 0 -47 48zM127 813v197q0 45 45 45h201q47 0 47 -45v-197q0 -45 -47 -45h-201q-45 0 -45 45z" />
<glyph unicode="&#xa2;" horiz-adv-x="1671" d="M102 526v392q0 121 25 205.5t82 139t152.5 79t236.5 24.5h221v154q0 37 37 36h92q37 0 37 -36v-154h461q37 0 37 -41v-190q0 -41 -37 -41h-461v-744h461q37 0 37 -41v-190q0 -41 -37 -41h-461v-164q0 -37 -37 -37h-92q-37 0 -37 37v164h-221q-141 0 -236.5 24.5 t-152.5 79t-82 139.5t-25 205zM401 588q0 -68 10.5 -114t36 -73.5t69.5 -39t112 -11.5h190v744h-190q-68 0 -112 -11.5t-69.5 -39t-36 -73.5t-10.5 -114v-268z" />
<glyph unicode="&#xa3;" horiz-adv-x="1359" d="M47 45v182q0 45 47 45h199v371h-199q-37 0 -37 37v94q0 37 37 37h199v207q0 113 20.5 191.5t67.5 129t122 73t183 22.5h541q45 0 45 -45v-183q0 -45 -45 -45h-477q-90 0 -123 -38t-33 -132v-180h448q37 0 37 -37v-94q0 -37 -37 -37h-448v-371h657q45 0 45 -45v-182 q0 -45 -45 -45h-1157q-47 0 -47 45z" />
<glyph unicode="&#xa4;" horiz-adv-x="1523" d="M156 197q-25 27 0 51l110 112q-6 37 -6 84v541q0 49 6 86l-110 113q-25 25 0 53l86 84q27 27 53 0l113 -115q49 12 120 13h463q70 0 123 -13l115 115q27 27 53 0l86 -84q25 -29 0 -53l-115 -115q8 -33 9 -84v-541q0 -51 -9 -84l115 -112q25 -25 0 -51l-86 -86 q-27 -25 -51 0l-115 112q-53 -12 -125 -12h-463q-37 0 -66.5 2t-55.5 8l-111 -110q-27 -25 -53 0zM451 506q0 -72 21.5 -95.5t88.5 -23.5h400q66 0 88 23.5t22 95.5v420q0 68 -22.5 92t-87.5 24h-400q-68 0 -89 -24.5t-21 -91.5v-420z" />
<glyph unicode="&#xa5;" horiz-adv-x="1579" d="M79 1420.5q5 13.5 21 13.5h258q29 0 45 -25l385 -537l390 537q16 25 45 25h250q16 0 21 -12.5t-5 -28.5l-451 -613h314q37 0 37 -37v-94q0 -37 -37 -37h-416v-206h416q37 0 37 -37v-93q0 -37 -37 -36h-416v-195q0 -45 -43 -45h-217q-41 0 -41 45v195h-410q-37 0 -37 36 v93q0 37 37 37h410v206h-410q-37 0 -37 37v94q0 37 37 37h307l-448 613q-10 14 -5 27.5z" />
<glyph unicode="&#xa6;" horiz-adv-x="866" d="M334 -262v788q0 37 37 37h123q37 0 36 -37v-788q0 -37 -36 -37h-123q-37 0 -37 37zM334 844v788q0 37 37 37h123q37 0 36 -37v-788q0 -37 -36 -37h-123q-37 0 -37 37z" />
<glyph unicode="&#xa7;" horiz-adv-x="1501" d="M90 1257v152q0 66 34 97.5t107 31.5h1133q37 0 37 -37v-168q0 -37 -37 -37h-954q-16 0 -17 -16v-14q0 -23 17 -27l909 -395q57 -20 74.5 -51t17.5 -97v-151q0 -127 -143 -127h-854q-18 0 -19 -15v-14q0 -23 17 -29l909 -387q57 -20 74.5 -51t17.5 -96v-152 q0 -66 -33.5 -96.5t-107.5 -30.5h-1133q-37 0 -37 37v168q0 37 37 37h953q18 0 18 14v15q0 20 -16 28l-910 387q-57 20 -74.5 51t-17.5 97v151q0 66 34 96.5t107 30.5h857q18 0 18 15v14q0 20 -16 29l-912 395q-55 20 -72.5 50t-17.5 95z" />
<glyph unicode="&#xa8;" horiz-adv-x="1120" d="M127 1300v195q0 45 47 45h201q45 0 45 -45v-195q0 -47 -45 -47h-201q-47 0 -47 47zM700 1300v195q0 45 45 45h201q45 0 45 -45v-195q0 -47 -45 -47h-201q-45 0 -45 47z" />
<glyph unicode="&#xa9;" horiz-adv-x="2017" d="M119 541v352q0 147 31.5 249.5t100 167t177.5 94.5t264 30h633q156 0 265.5 -30t178 -94.5t99 -167t30.5 -249.5v-352q0 -147 -30.5 -251t-99 -168.5t-178 -93t-265.5 -28.5h-633q-156 0 -264.5 28.5t-177 93t-100 168t-31.5 251.5zM272 541q0 -104 22.5 -179t74 -121 t130.5 -67.5t193 -21.5h633q113 0 192.5 21.5t131 67.5t74 120.5t22.5 179.5v352q0 104 -22.5 178t-74 120t-131 67.5t-192.5 21.5h-633q-115 0 -193.5 -21.5t-130 -67.5t-74 -120t-22.5 -178v-352zM580 639v180q0 152 67.5 215.5t226.5 63.5h478q23 0 22 -23v-102 q0 -25 -22 -25h-471q-82 0 -111 -29.5t-29 -113.5v-150q0 -84 29 -114.5t111 -30.5h471q23 0 22 -23v-104q0 -23 -22 -23h-478q-160 0 -227 63.5t-67 215.5z" />
<glyph unicode="&#xaa;" horiz-adv-x="958" d="M82 799v155q0 72 36 111t138 39h438v59q0 55 -23.5 79t-92.5 24h-457q-20 0 -21 20v127q0 20 21 21h485q152 0 210 -54.5t58 -179.5v-473q0 -57 -17 -74.5t-64 -17.5h-537q-102 0 -138 39t-36 125zM260 850q0 -29 11.5 -43t43.5 -14h351q29 0 28 34v144h-379 q-33 0 -44 -13.5t-11 -39.5v-68z" />
<glyph unicode="&#xab;" horiz-adv-x="1095" d="M66 0zM66 555v14q0 31 5 51.5t19 49.5l203 420q16 35 55 34h156q23 0 32 -13t-1 -30l-228 -465q-12 -25 -12 -47v-14q0 -27 12 -47l228 -465q10 -16 0.5 -29.5t-31.5 -13.5h-156q-39 0 -55 35l-203 420q-14 29 -19 48t-5 52zM555 555v14q0 31 5 51.5t19 49.5l203 420 q16 35 55 34h156q23 0 32 -13t-1 -30l-228 -465q-12 -25 -12 -47v-14q0 -27 12 -47l228 -465q10 -16 0.5 -29.5t-31.5 -13.5h-156q-39 0 -55 35l-203 420q-14 29 -19 48t-5 52z" />
<glyph unicode="&#xac;" horiz-adv-x="1255" d="M86 969v121q0 37 37 36h1003q43 0 43 -43v-1046q0 -37 -36 -37h-123q-37 0 -37 37v895h-850q-37 0 -37 37z" />
<glyph unicode="&#xad;" horiz-adv-x="782" d="M45 594zM45 631v147q0 37 37 37h616q37 0 37 -37v-147q0 -37 -37 -37h-616q-37 0 -37 37z" />
<glyph unicode="&#xae;" horiz-adv-x="2017" d="M119 541v352q0 147 31.5 249.5t100 167t177.5 94.5t264 30h633q156 0 265.5 -30t178 -94.5t99 -167t30.5 -249.5v-352q0 -147 -30.5 -251t-99 -168.5t-178 -93t-265.5 -28.5h-633q-156 0 -264.5 28.5t-177 93t-100 168t-31.5 251.5zM272 541q0 -104 22.5 -179t74 -121 t130.5 -67.5t193 -21.5h633q113 0 192.5 21.5t131 67.5t74 120.5t22.5 179.5v352q0 104 -22.5 178t-74 120t-131 67.5t-192.5 21.5h-633q-115 0 -193.5 -21.5t-130 -67.5t-74 -120t-22.5 -178v-352zM600 383v684q0 31 31 31h567q123 0 175 -54.5t52 -162.5v-60 q0 -92 -36.5 -143t-120.5 -68l180 -223q4 -6 3 -16.5t-15 -10.5h-138q-14 0 -19 3.5t-9 11.5l-168 219h-340v-211q0 -23 -23 -23h-114q-25 0 -25 23zM762 723h403q53 0 76 22.5t23 69.5v45q0 47 -22.5 70.5t-76.5 23.5h-389q-14 0 -14 -12v-219z" />
<glyph unicode="&#xaf;" horiz-adv-x="1308" d="M127 1339v119q0 45 47 45h961q45 0 45 -45v-119q0 -45 -45 -45h-961q-47 0 -47 45z" />
<glyph unicode="&#xb0;" horiz-adv-x="1062" d="M109 969v182q0 154 67.5 218.5t229.5 64.5h247q164 0 231.5 -64.5t67.5 -218.5v-182q0 -154 -67.5 -218.5t-231.5 -64.5h-247q-162 0 -229.5 64.5t-67.5 218.5zM299 1004q0 -82 28.5 -112t106.5 -30h191q80 0 107.5 30t27.5 112v112q0 82 -27.5 110.5t-107.5 28.5h-191 q-78 0 -106.5 -28.5t-28.5 -110.5v-112z" />
<glyph unicode="&#xb1;" horiz-adv-x="1255" d="M86 0zM86 37v123q0 37 37 37h1010q37 0 36 -37v-123q0 -37 -36 -37h-1010q-37 0 -37 37zM86 770v123q0 37 37 37h405v406q0 37 37 36h123q37 0 37 -36v-406h408q37 0 36 -37v-123q0 -37 -36 -37h-408v-407q0 -37 -37 -37h-123q-37 0 -37 37v407h-405q-37 0 -37 37z" />
<glyph unicode="&#xb2;" horiz-adv-x="1044" d="M98 645zM98 739v178q0 94 49.5 145.5t147.5 51.5h420q51 0 51 61v35q0 59 -53 60h-559q-27 0 -27 24v115q0 25 27 24h594q104 0 152 -50t48 -134v-84q0 -92 -50 -143t-148 -51h-418q-53 0 -53 -62v-82q0 -18 18 -18h623q27 0 26 -25v-114q0 -25 -26 -25h-719 q-55 0 -79 22.5t-24 71.5z" />
<glyph unicode="&#xb3;" horiz-adv-x="1021" d="M92 645zM92 670v114q0 25 25 25h553q41 0 54 15.5t13 47.5v29q0 35 -13 53.5t-54 18.5h-545q-27 0 -27 24v94q0 25 27 25h545q41 0 54 16.5t13 47.5v26q0 33 -13 48.5t-54 15.5h-553q-25 0 -25 24v115q0 25 25 24h592q113 0 158.5 -45t45.5 -141v-53q0 -90 -61 -141 q68 -53 68 -148v-65q0 -92 -41 -143.5t-148 -51.5h-614q-25 0 -25 25z" />
<glyph unicode="&#xb4;" horiz-adv-x="804" d="M168 1210.5q-10 12.5 0 34.5l186 379q23 47 64 47h180q23 0 33 -12t-2 -35l-211 -379q-12 -23 -25.5 -35t-36.5 -12h-155q-23 0 -33 12.5z" />
<glyph unicode="&#xb6;" horiz-adv-x="1644" d="M123 928v254q0 96 20.5 163.5t67.5 109.5t126 61.5t193 19.5h332q182 0 182 -174v-1776q0 -39 -40 -39h-170q-37 0 -37 39v985h-267q-115 0 -193.5 19.5t-125.5 62.5t-67.5 110.5t-20.5 164.5zM371 973q0 -55 8 -93t28.5 -60.5t56.5 -32t91 -9.5h242v475q0 76 -70 76 h-172q-55 0 -91 -9t-56.5 -31.5t-28.5 -60.5t-8 -93v-162zM1270 -414v1911q0 39 39 39h168q39 0 39 -39v-1911q0 -39 -39 -39h-168q-39 0 -39 39z" />
<glyph unicode="&#xb7;" horiz-adv-x="546" d="M127 575zM127 620v197q0 45 47 45h201q45 0 45 -45v-197q0 -45 -45 -45h-201q-47 0 -47 45z" />
<glyph unicode="&#xb8;" horiz-adv-x="647" d="M207 -510l33 379q4 47 49 47h184q51 0 39 -53l-90 -373q-12 -47 -51 -47h-117q-51 0 -47 47z" />
<glyph unicode="&#xb9;" horiz-adv-x="497" d="M61 645zM61 1294v115q0 25 25 24h174q66 0 93.5 -26.5t27.5 -83.5v-653q0 -25 -29 -25h-127q-25 0 -24 25v565q0 35 -35 35h-80q-25 0 -25 24z" />
<glyph unicode="&#xba;" horiz-adv-x="1048" d="M98 868v332q0 125 57.5 179.5t209.5 54.5h319q150 0 209 -54.5t59 -179.5v-332q0 -63 -13 -107t-45 -71.5t-83 -41t-127 -13.5h-319q-76 0 -127.5 13.5t-82 41t-44 71.5t-13.5 107zM279 926q0 -72 22.5 -98.5t93.5 -26.5h258q70 0 93.5 26.5t23.5 98.5v219 q0 72 -23.5 97.5t-93.5 25.5h-258q-72 0 -94 -25.5t-22 -97.5v-219z" />
<glyph unicode="&#xbb;" horiz-adv-x="1095" d="M61 0zM70 13.5q-9 13.5 2 29.5l227 465q10 18 10 47v14q0 27 -10 47l-227 465q-10 16 -1 29.5t31 13.5h156q37 0 55 -34l203 -420q14 -29 19.5 -49.5t5.5 -51.5v-14q0 -33 -5.5 -52.5t-19.5 -47.5l-203 -420q-18 -35 -55 -35h-156q-23 0 -32 13.5zM559 13.5 q-9 13.5 2 29.5l227 465q10 18 10 47v14q0 27 -10 47l-227 465q-10 16 -1 29.5t31 13.5h156q37 0 55 -34l203 -420q14 -29 19.5 -49.5t5.5 -51.5v-14q0 -33 -5.5 -52.5t-19.5 -47.5l-203 -420q-18 -35 -55 -35h-156q-23 0 -32 13.5z" />
<glyph unicode="&#xbc;" horiz-adv-x="1925" d="M143 0zM148.5 12.5q-5.5 12.5 4.5 24.5l1106 1376q10 10 21.5 15.5t34.5 5.5h127q16 0 20 -12.5t-6 -24.5l-1106 -1377q-10 -10 -21.5 -15t-33.5 -5h-125q-16 0 -21.5 12.5zM188 1294v115q0 25 25 24h174q66 0 93.5 -26.5t27.5 -83.5v-653q0 -25 -29 -25h-127 q-25 0 -24 25v565q0 35 -35 35h-80q-25 0 -25 24zM856 215v94q0 29 8 54.5t41 48.5l483 340q31 23 56.5 29.5t66.5 6.5h74q53 0 78.5 -24.5t25.5 -95.5v-371h90q25 0 25 -25v-104q0 -27 -25 -27h-90v-116q0 -25 -28 -25h-127q-25 0 -25 25v116h-573q-41 0 -60.5 21.5 t-19.5 52.5zM1054 307q0 -10 11 -10h444v315q0 14 -12 15h-8q-16 0 -31 -11l-393 -278q-10 -6 -11 -21v-10z" />
<glyph unicode="&#xbd;" horiz-adv-x="2048" d="M143 0zM148.5 12.5q-5.5 12.5 4.5 24.5l1106 1376q10 10 21.5 15.5t34.5 5.5h127q16 0 20 -12.5t-6 -24.5l-1106 -1377q-10 -10 -21.5 -15t-33.5 -5h-125q-16 0 -21.5 12.5zM188 1294v115q0 25 25 24h174q66 0 93.5 -26.5t27.5 -83.5v-653q0 -25 -29 -25h-127 q-25 0 -24 25v565q0 35 -35 35h-80q-25 0 -25 24zM1079 94v178q0 94 49.5 145.5t147.5 51.5h420q51 0 51 61v35q0 59 -53 60h-559q-27 0 -27 24v115q0 25 27 24h594q104 0 152 -50t48 -134v-84q0 -92 -50 -143t-148 -51h-418q-53 0 -53 -62v-82q0 -18 18 -18h623 q27 0 26 -25v-114q0 -25 -26 -25h-719q-55 0 -79 22.5t-24 71.5z" />
<glyph unicode="&#xbe;" horiz-adv-x="2349" d="M121 0zM121 670v114q0 25 25 25h553q41 0 54 15.5t13 47.5v29q0 35 -13 53.5t-54 18.5h-545q-27 0 -27 24v94q0 25 27 25h545q41 0 54 16.5t13 47.5v26q0 33 -13 48.5t-54 15.5h-553q-25 0 -25 24v115q0 25 25 24h592q113 0 158.5 -45t45.5 -141v-53q0 -90 -61 -141 q68 -53 68 -148v-65q0 -92 -41 -143.5t-148 -51.5h-614q-25 0 -25 25zM572.5 12.5q-5.5 12.5 4.5 24.5l1106 1376q10 10 21.5 15.5t34.5 5.5h127q16 0 20 -12.5t-6 -24.5l-1106 -1377q-10 -10 -21.5 -15t-33.5 -5h-125q-16 0 -21.5 12.5zM1280 215v94q0 29 8 54.5t41 48.5 l483 340q31 23 56.5 29.5t66.5 6.5h74q53 0 78.5 -24.5t25.5 -95.5v-371h90q25 0 25 -25v-104q0 -27 -25 -27h-90v-116q0 -25 -28 -25h-127q-25 0 -25 25v116h-573q-41 0 -60.5 21.5t-19.5 52.5zM1478 307q0 -10 11 -10h444v315q0 14 -12 15h-8q-16 0 -31 -11l-393 -278 q-10 -6 -11 -21v-10z" />
<glyph unicode="&#xbf;" horiz-adv-x="1292" d="M63 -88q0 61 9.5 107.5t32 81t58.5 62t89 52.5l338 162q31 14 41 34.5t14 49.5l6 51q4 31 15.5 41t46.5 10h90q33 0 45 -12t12 -39l2 -100q0 -53 -15.5 -99.5t-74.5 -76.5l-348 -181q-35 -16 -49.5 -41.5t-14.5 -66.5v-53q0 -86 89 -87h735q45 0 45 -45v-168 q0 -45 -45 -45h-842q-145 0 -212 71t-67 206v86zM610 813v197q0 45 47 45h201q45 0 45 -45v-197q0 -45 -45 -45h-201q-47 0 -47 45z" />
<glyph unicode="&#xc0;" horiz-adv-x="1996" d="M27 0zM31.5 13.5q-4.5 13.5 5.5 33.5l672 1231q51 92 100 124t115 32h120q78 0 131.5 -32t104.5 -124l678 -1231q10 -20 5 -33.5t-30 -13.5h-260q-35 0 -47 27l-145 264h-963l-141 -264q-14 -27 -47 -27h-267q-27 0 -31.5 13.5zM647 528h705l-326 600q-8 14 -22 15h-13 q-14 0 -22 -15zM705.5 1865.5q11.5 10.5 31.5 10.5h182q41 0 64 -39l184 -301q10 -18 1 -28.5t-34 -10.5h-155q-23 0 -36 9t-26 30l-209 301q-14 18 -2.5 28.5z" />
<glyph unicode="&#xc1;" horiz-adv-x="1996" d="M27 0zM31.5 13.5q-4.5 13.5 5.5 33.5l672 1231q51 92 100 124t115 32h120q78 0 131.5 -32t104.5 -124l678 -1231q10 -20 5 -33.5t-30 -13.5h-260q-35 0 -47 27l-145 264h-963l-141 -264q-14 -27 -47 -27h-267q-27 0 -31.5 13.5zM647 528h705l-326 600q-8 14 -22 15h-13 q-14 0 -22 -15zM827 1507q-10 10 2 29l182 301q23 39 64 39h182q23 0 33 -10.5t-4 -28.5l-209 -301q-12 -20 -25.5 -29.5t-36.5 -9.5h-155q-23 0 -33 10z" />
<glyph unicode="&#xc2;" horiz-adv-x="1996" d="M27 0zM31.5 13.5q-4.5 13.5 5.5 33.5l672 1231q51 92 100 124t115 32h120q78 0 131.5 -32t104.5 -124l678 -1231q10 -20 5 -33.5t-30 -13.5h-260q-35 0 -47 27l-145 264h-963l-141 -264q-14 -27 -47 -27h-267q-27 0 -31.5 13.5zM596 1509q-9 12 6 31l217 291 q16 23 34.5 34t53.5 11h182q35 0 54.5 -11.5t35.5 -33.5l215 -291q14 -18 5 -30.5t-29 -12.5h-160q-41 0 -64 37l-116 176q-8 16 -27 16h-8q-18 0 -27 -16l-118 -176q-10 -20 -24.5 -28.5t-39.5 -8.5h-158q-23 0 -32 12zM647 528h705l-326 600q-8 14 -22 15h-13 q-14 0 -22 -15z" />
<glyph unicode="&#xc3;" horiz-adv-x="1996" d="M27 0zM31.5 13.5q-4.5 13.5 5.5 33.5l672 1231q51 92 100 124t115 32h120q78 0 131.5 -32t104.5 -124l678 -1231q10 -20 5 -33.5t-30 -13.5h-260q-35 0 -47 27l-145 264h-963l-141 -264q-14 -27 -47 -27h-267q-27 0 -31.5 13.5zM471 1581q0 84 14 139t45 88t80 46.5 t117 13.5q111 0 189.5 -30t148.5 -85q35 -29 65.5 -46.5t89.5 -17.5q31 0 49.5 6.5t27.5 22.5t13 44t4 69q2 45 56 45h116q23 0 30 -13.5t7 -46.5q0 -84 -14 -139t-46 -88t-81 -46t-117 -13q-111 0 -188.5 29.5t-147.5 84.5q-35 29 -66.5 46.5t-90.5 17.5t-75.5 -30 t-16.5 -112q-2 -45 -58 -45h-114q-25 0 -31 13.5t-6 46.5zM647 528h705l-326 600q-8 14 -22 15h-13q-14 0 -22 -15z" />
<glyph unicode="&#xc4;" horiz-adv-x="1996" d="M27 0zM31.5 13.5q-4.5 13.5 5.5 33.5l672 1231q51 92 100 124t115 32h120q78 0 131.5 -32t104.5 -124l678 -1231q10 -20 5 -33.5t-30 -13.5h-260q-35 0 -47 27l-145 264h-963l-141 -264q-14 -27 -47 -27h-267q-27 0 -31.5 13.5zM567 1581v194q0 37 45 37h201q45 0 45 -37 v-194q0 -37 -45 -37h-201q-45 0 -45 37zM647 528h705l-326 600q-8 14 -22 15h-13q-14 0 -22 -15zM1138 1581v194q0 37 45 37h201q47 0 47 -37v-194q0 -37 -47 -37h-201q-45 0 -45 37z" />
<glyph unicode="&#xc5;" horiz-adv-x="1996" d="M27 0zM31.5 13.5q-4.5 13.5 5.5 33.5l672 1231q51 92 100 124t115 32h120q78 0 131.5 -32t104.5 -124l678 -1231q10 -20 5 -33.5t-30 -13.5h-260q-35 0 -47 27l-145 264h-963l-141 -264q-14 -27 -47 -27h-267q-27 0 -31.5 13.5zM647 528h705l-326 600q-8 14 -22 15h-13 q-14 0 -22 -15zM688 1614v102q0 86 47 123t162 37h198q117 0 164 -37t47 -123v-102q0 -86 -47 -123t-164 -37h-198q-115 0 -162 37t-47 123zM837 1634q0 -41 17.5 -55.5t70.5 -14.5h144q53 0 70.5 14.5t17.5 55.5v59q0 41 -17.5 56.5t-70.5 15.5h-144q-53 0 -70.5 -15.5 t-17.5 -56.5v-59z" />
<glyph unicode="&#xc6;" horiz-adv-x="2764" d="M31.5 13.5q-4.5 13.5 5.5 33.5l672 1231q49 94 99 125t116 31h1693q45 0 45 -45v-195q0 -45 -45 -45h-1071v-301h1059q45 0 45 -45v-160q0 -47 -45 -47h-1059v-33q0 -80 13.5 -134t44 -86t83 -45t132.5 -13h798q45 0 45 -45v-195q0 -45 -45 -45h-802q-236 0 -366 66.5 t-177 224.5h-754l-141 -264q-14 -27 -47 -27h-267q-27 0 -31.5 13.5zM645 528h596v621h-246q-12 0 -24 -14z" />
<glyph unicode="&#xc7;" horiz-adv-x="1744" d="M119 0zM119 541v352q0 147 31.5 249.5t100 167t177.5 94.5t264 30h924q45 0 45 -45v-201q0 -47 -45 -47h-911q-80 0 -132.5 -13.5t-83 -45t-44 -85t-13.5 -135.5v-291q0 -82 13.5 -136t44 -86t83 -45t132.5 -13h911q45 0 45 -45v-201q0 -45 -45 -45h-924 q-156 0 -264.5 28.5t-177 93t-100 168t-31.5 251.5zM785 -510l33 379q4 47 49 47h184q51 0 39 -53l-90 -373q-12 -47 -51 -47h-117q-51 0 -47 47z" />
<glyph unicode="&#xc8;" horiz-adv-x="1740" d="M119 0zM119 541v352q0 147 31.5 249.5t100 167t177.5 94.5t264 30h901q47 0 47 -45v-195q0 -45 -47 -45h-895q-80 0 -132 -13.5t-83.5 -45t-44 -86t-12.5 -134.5v-20h1157q45 0 45 -45v-162q0 -45 -45 -45h-1157v-35q0 -80 12.5 -134t44 -86t83.5 -45t132 -13h895 q47 0 47 -45v-195q0 -45 -47 -45h-901q-156 0 -264.5 28.5t-177 93t-100 168t-31.5 251.5zM662.5 1865.5q11.5 10.5 31.5 10.5h182q41 0 64 -39l184 -301q10 -18 1 -28.5t-34 -10.5h-155q-23 0 -36 9t-26 30l-209 301q-14 18 -2.5 28.5z" />
<glyph unicode="&#xc9;" horiz-adv-x="1740" d="M119 0zM119 541v352q0 147 31.5 249.5t100 167t177.5 94.5t264 30h901q47 0 47 -45v-195q0 -45 -47 -45h-895q-80 0 -132 -13.5t-83.5 -45t-44 -86t-12.5 -134.5v-20h1157q45 0 45 -45v-162q0 -45 -45 -45h-1157v-35q0 -80 12.5 -134t44 -86t83.5 -45t132 -13h895 q47 0 47 -45v-195q0 -45 -47 -45h-901q-156 0 -264.5 28.5t-177 93t-100 168t-31.5 251.5zM784 1507q-10 10 2 29l182 301q23 39 64 39h182q23 0 33 -10.5t-4 -28.5l-209 -301q-12 -20 -25.5 -29.5t-36.5 -9.5h-155q-23 0 -33 10z" />
<glyph unicode="&#xca;" horiz-adv-x="1740" d="M119 0zM119 541v352q0 147 31.5 249.5t100 167t177.5 94.5t264 30h901q47 0 47 -45v-195q0 -45 -47 -45h-895q-80 0 -132 -13.5t-83.5 -45t-44 -86t-12.5 -134.5v-20h1157q45 0 45 -45v-162q0 -45 -45 -45h-1157v-35q0 -80 12.5 -134t44 -86t83.5 -45t132 -13h895 q47 0 47 -45v-195q0 -45 -47 -45h-901q-156 0 -264.5 28.5t-177 93t-100 168t-31.5 251.5zM551 1509q-9 12 6 31l217 291q16 23 34.5 34t53.5 11h182q35 0 54.5 -11.5t35.5 -33.5l215 -291q14 -18 5 -30.5t-29 -12.5h-160q-41 0 -64 37l-116 176q-8 16 -27 16h-8 q-18 0 -27 -16l-118 -176q-10 -20 -24.5 -28.5t-39.5 -8.5h-158q-23 0 -32 12z" />
<glyph unicode="&#xcb;" horiz-adv-x="1740" d="M119 0zM119 541v352q0 147 31.5 249.5t100 167t177.5 94.5t264 30h901q47 0 47 -45v-195q0 -45 -47 -45h-895q-80 0 -132 -13.5t-83.5 -45t-44 -86t-12.5 -134.5v-20h1157q45 0 45 -45v-162q0 -45 -45 -45h-1157v-35q0 -80 12.5 -134t44 -86t83.5 -45t132 -13h895 q47 0 47 -45v-195q0 -45 -47 -45h-901q-156 0 -264.5 28.5t-177 93t-100 168t-31.5 251.5zM520 1581v194q0 37 45 37h201q45 0 45 -37v-194q0 -37 -45 -37h-201q-45 0 -45 37zM1091 1581v194q0 37 45 37h201q47 0 47 -37v-194q0 -37 -47 -37h-201q-45 0 -45 37z" />
<glyph unicode="&#xcc;" horiz-adv-x="591" d="M0 0zM5.5 1865.5q11.5 10.5 31.5 10.5h182q41 0 64 -39l184 -301q10 -18 1 -28.5t-34 -10.5h-155q-23 0 -36 9t-26 30l-209 301q-14 18 -2.5 28.5zM139 45v1344q0 45 47 45h221q45 0 46 -45v-1344q0 -45 -46 -45h-221q-47 0 -47 45z" />
<glyph unicode="&#xcd;" horiz-adv-x="591" d="M113 0zM123 1507q-10 10 2 29l182 301q23 39 64 39h182q23 0 33 -10.5t-4 -28.5l-209 -301q-12 -20 -25.5 -29.5t-36.5 -9.5h-155q-23 0 -33 10zM135 45v1344q0 45 47 45h221q45 0 46 -45v-1344q0 -45 -46 -45h-221q-47 0 -47 45z" />
<glyph unicode="&#xce;" horiz-adv-x="761" d="M-22 1509q-9 12 6 31l217 291q16 23 34.5 34t53.5 11h182q35 0 54.5 -11.5t35.5 -33.5l215 -291q14 -18 5 -30.5t-29 -12.5h-160q-41 0 -64 37l-116 176q-8 16 -27 16h-8q-18 0 -27 -16l-118 -176q-10 -20 -24.5 -28.5t-39.5 -8.5h-158q-23 0 -32 12zM0 0zM223 45v1344 q0 45 47 45h221q45 0 46 -45v-1344q0 -45 -46 -45h-221q-47 0 -47 45z" />
<glyph unicode="&#xcf;" horiz-adv-x="780" d="M4 0zM4 1581v194q0 37 45 37h200q45 0 45 -37v-194q0 -37 -45 -37h-200q-45 0 -45 37zM231 45v1344q0 45 47 45h221q45 0 46 -45v-1344q0 -45 -46 -45h-221q-47 0 -47 45zM486 1581v194q0 37 45 37h200q45 0 45 -37v-194q0 -37 -45 -37h-200q-45 0 -45 37z" />
<glyph unicode="&#xd0;" horiz-adv-x="2013" d="M27 643v162q0 45 45 45h176v522q0 61 61 62h959q166 0 284.5 -34t194.5 -104.5t111.5 -180t35.5 -259.5v-278q0 -150 -35.5 -259.5t-111.5 -180t-194.5 -104.5t-284.5 -34h-959q-61 0 -61 61v537h-176q-45 0 -45 45zM561 311q0 -27 27 -26h672q90 0 151.5 16t99 53 t54 98.5t16.5 151.5v225q0 90 -16.5 151.5t-54 98.5t-99 53.5t-151.5 16.5h-672q-27 0 -27 -29v-270h696q45 0 46 -45v-162q0 -45 -46 -45h-696v-287z" />
<glyph unicode="&#xd1;" horiz-adv-x="2002" d="M135 0zM135 45v1176q0 125 45 169t139 44h181q49 0 81.5 -4.5t57.5 -17.5t47.5 -36.5t50.5 -62.5l762 -1000q8 -14 27 -14h18q16 0 17 20v1070q0 45 45 45h215q45 0 45 -45v-1176q0 -125 -45 -169t-140 -44h-176q-47 0 -78.5 4t-56 16.5t-48.5 36t-54 64.5l-764 999 q-12 14 -27 15h-18q-16 0 -17 -21v-1069q0 -45 -45 -45h-215q-47 0 -47 45zM477 1581q0 84 14 139t45 88t80 46.5t117 13.5q111 0 189.5 -30t148.5 -85q35 -29 65.5 -46.5t89.5 -17.5q31 0 49.5 6.5t27.5 22.5t13 44t4 69q2 45 56 45h116q23 0 30 -13.5t7 -46.5 q0 -84 -14 -139t-46 -88t-81 -46t-117 -13q-111 0 -188.5 29.5t-147.5 84.5q-35 29 -66.5 46.5t-90.5 17.5t-75.5 -30t-16.5 -112q-2 -45 -58 -45h-114q-25 0 -31 13.5t-6 46.5z" />
<glyph unicode="&#xd2;" horiz-adv-x="2017" d="M119 0zM119 541v352q0 147 31.5 249.5t100 167t177.5 94.5t264 30h633q156 0 265.5 -30t178 -94.5t99 -167t30.5 -249.5v-352q0 -147 -30.5 -251t-99 -168.5t-178 -93t-265.5 -28.5h-633q-156 0 -264.5 28.5t-177 93t-100 168t-31.5 251.5zM432 563q0 -80 13.5 -134 t44 -86t83 -45t132.5 -13h608q80 0 132 13t83 45t44 86t13 134v307q0 80 -13 134.5t-44 86t-83 45t-132 13.5h-608q-80 0 -132.5 -13.5t-83 -45t-44 -86t-13.5 -134.5v-307zM707.5 1865.5q11.5 10.5 31.5 10.5h182q41 0 64 -39l184 -301q10 -18 1 -28.5t-34 -10.5h-155 q-23 0 -36 9t-26 30l-209 301q-14 18 -2.5 28.5z" />
<glyph unicode="&#xd3;" horiz-adv-x="2017" d="M119 0zM119 541v352q0 147 31.5 249.5t100 167t177.5 94.5t264 30h633q156 0 265.5 -30t178 -94.5t99 -167t30.5 -249.5v-352q0 -147 -30.5 -251t-99 -168.5t-178 -93t-265.5 -28.5h-633q-156 0 -264.5 28.5t-177 93t-100 168t-31.5 251.5zM432 563q0 -80 13.5 -134 t44 -86t83 -45t132.5 -13h608q80 0 132 13t83 45t44 86t13 134v307q0 80 -13 134.5t-44 86t-83 45t-132 13.5h-608q-80 0 -132.5 -13.5t-83 -45t-44 -86t-13.5 -134.5v-307zM836 1507q-10 10 2 29l182 301q23 39 64 39h182q23 0 33 -10.5t-4 -28.5l-209 -301 q-12 -20 -25.5 -29.5t-36.5 -9.5h-155q-23 0 -33 10z" />
<glyph unicode="&#xd4;" horiz-adv-x="2017" d="M119 0zM119 541v352q0 147 31.5 249.5t100 167t177.5 94.5t264 30h633q156 0 265.5 -30t178 -94.5t99 -167t30.5 -249.5v-352q0 -147 -30.5 -251t-99 -168.5t-178 -93t-265.5 -28.5h-633q-156 0 -264.5 28.5t-177 93t-100 168t-31.5 251.5zM432 563q0 -80 13.5 -134 t44 -86t83 -45t132.5 -13h608q80 0 132 13t83 45t44 86t13 134v307q0 80 -13 134.5t-44 86t-83 45t-132 13.5h-608q-80 0 -132.5 -13.5t-83 -45t-44 -86t-13.5 -134.5v-307zM605 1509q-9 12 6 31l217 291q16 23 34.5 34t53.5 11h182q35 0 54.5 -11.5t35.5 -33.5l215 -291 q14 -18 5 -30.5t-29 -12.5h-160q-41 0 -64 37l-116 176q-8 16 -27 16h-8q-18 0 -27 -16l-118 -176q-10 -20 -24.5 -28.5t-39.5 -8.5h-158q-23 0 -32 12z" />
<glyph unicode="&#xd5;" horiz-adv-x="2017" d="M119 0zM119 541v352q0 147 31.5 249.5t100 167t177.5 94.5t264 30h633q156 0 265.5 -30t178 -94.5t99 -167t30.5 -249.5v-352q0 -147 -30.5 -251t-99 -168.5t-178 -93t-265.5 -28.5h-633q-156 0 -264.5 28.5t-177 93t-100 168t-31.5 251.5zM432 563q0 -80 13.5 -134 t44 -86t83 -45t132.5 -13h608q80 0 132 13t83 45t44 86t13 134v307q0 80 -13 134.5t-44 86t-83 45t-132 13.5h-608q-80 0 -132.5 -13.5t-83 -45t-44 -86t-13.5 -134.5v-307zM484 1581q0 84 14 139t45 88t80 46.5t117 13.5q111 0 189.5 -30t148.5 -85q35 -29 65.5 -46.5 t89.5 -17.5q31 0 49.5 6.5t27.5 22.5t13 44t4 69q2 45 56 45h116q23 0 30 -13.5t7 -46.5q0 -84 -14 -139t-46 -88t-81 -46t-117 -13q-111 0 -188.5 29.5t-147.5 84.5q-35 29 -66.5 46.5t-90.5 17.5t-75.5 -30t-16.5 -112q-2 -45 -58 -45h-114q-25 0 -31 13.5t-6 46.5z" />
<glyph unicode="&#xd6;" horiz-adv-x="2017" d="M119 0zM119 541v352q0 147 31.5 249.5t100 167t177.5 94.5t264 30h633q156 0 265.5 -30t178 -94.5t99 -167t30.5 -249.5v-352q0 -147 -30.5 -251t-99 -168.5t-178 -93t-265.5 -28.5h-633q-156 0 -264.5 28.5t-177 93t-100 168t-31.5 251.5zM432 563q0 -80 13.5 -134 t44 -86t83 -45t132.5 -13h608q80 0 132 13t83 45t44 86t13 134v307q0 80 -13 134.5t-44 86t-83 45t-132 13.5h-608q-80 0 -132.5 -13.5t-83 -45t-44 -86t-13.5 -134.5v-307zM578 1581v194q0 37 45 37h201q45 0 45 -37v-194q0 -37 -45 -37h-201q-45 0 -45 37zM1149 1581v194 q0 37 45 37h201q47 0 47 -37v-194q0 -37 -47 -37h-201q-45 0 -45 37z" />
<glyph unicode="&#xd7;" horiz-adv-x="1255" d="M127 303q-25 29 0 53l360 361l-358 360q-29 25 0 51l86 89q25 25 53 0l359 -361l360 361q25 25 51 0l88 -89q25 -27 0 -51l-360 -360l360 -361q29 -25 0 -53l-86 -86q-29 -25 -53 0l-360 361l-361 -361q-27 -27 -51 0z" />
<glyph unicode="&#xd8;" horiz-adv-x="2017" d="M119 541v352q0 147 31.5 249.5t100 167t177.5 94.5t264 30h633q29 0 56.5 -1t54.5 -3l133 176q16 23 31.5 27.5t33.5 4.5h123q16 0 23.5 -11t-6.5 -28l-154 -204q147 -49 212.5 -170t65.5 -332v-352q0 -147 -30.5 -251t-99 -168.5t-178 -93t-265.5 -28.5h-633h-58.5 t-55.5 4l-132 -176q-16 -23 -31.5 -28t-33.5 -5h-123q-16 0 -23.5 11.5t7.5 27.5l153 205q-147 49 -211.5 170t-64.5 332zM432 563q0 -127 33 -189.5t121 -80.5l641 856h-522q-80 0 -132.5 -13.5t-83 -45t-44 -86t-13.5 -134.5v-307zM788 285h525q80 0 132 13t83 45t44 86 t13 134v307q0 127 -33.5 188.5t-124.5 80.5z" />
<glyph unicode="&#xd9;" horiz-adv-x="2000" d="M131 0zM131 541v848q0 45 47 45h221q45 0 45 -45v-818q0 -82 13.5 -136t44 -86t83 -45t132.5 -13h567q80 0 132 13t83 45t43 86t12 136v818q0 45 45 45h224q45 0 45 -45v-848q0 -147 -31 -251t-99.5 -168.5t-178 -93t-265.5 -28.5h-589q-156 0 -264.5 28.5t-177 93 t-100.5 168t-32 251.5zM707.5 1865.5q11.5 10.5 31.5 10.5h182q41 0 64 -39l184 -301q10 -18 1 -28.5t-34 -10.5h-155q-23 0 -36 9t-26 30l-209 301q-14 18 -2.5 28.5z" />
<glyph unicode="&#xda;" horiz-adv-x="2000" d="M131 0zM131 541v848q0 45 47 45h221q45 0 45 -45v-818q0 -82 13.5 -136t44 -86t83 -45t132.5 -13h567q80 0 132 13t83 45t43 86t12 136v818q0 45 45 45h224q45 0 45 -45v-848q0 -147 -31 -251t-99.5 -168.5t-178 -93t-265.5 -28.5h-589q-156 0 -264.5 28.5t-177 93 t-100.5 168t-32 251.5zM827 1507q-10 10 2 29l182 301q23 39 64 39h182q23 0 33 -10.5t-4 -28.5l-209 -301q-12 -20 -25.5 -29.5t-36.5 -9.5h-155q-23 0 -33 10z" />
<glyph unicode="&#xdb;" horiz-adv-x="2000" d="M131 0zM131 541v848q0 45 47 45h221q45 0 45 -45v-818q0 -82 13.5 -136t44 -86t83 -45t132.5 -13h567q80 0 132 13t83 45t43 86t12 136v818q0 45 45 45h224q45 0 45 -45v-848q0 -147 -31 -251t-99.5 -168.5t-178 -93t-265.5 -28.5h-589q-156 0 -264.5 28.5t-177 93 t-100.5 168t-32 251.5zM596 1509q-9 12 6 31l217 291q16 23 34.5 34t53.5 11h182q35 0 54.5 -11.5t35.5 -33.5l215 -291q14 -18 5 -30.5t-29 -12.5h-160q-41 0 -64 37l-116 176q-8 16 -27 16h-8q-18 0 -27 -16l-118 -176q-10 -20 -24.5 -28.5t-39.5 -8.5h-158q-23 0 -32 12z " />
<glyph unicode="&#xdc;" horiz-adv-x="2000" d="M131 0zM131 541v848q0 45 47 45h221q45 0 45 -45v-818q0 -82 13.5 -136t44 -86t83 -45t132.5 -13h567q80 0 132 13t83 45t43 86t12 136v818q0 45 45 45h224q45 0 45 -45v-848q0 -147 -31 -251t-99.5 -168.5t-178 -93t-265.5 -28.5h-589q-156 0 -264.5 28.5t-177 93 t-100.5 168t-32 251.5zM567 1581v194q0 37 45 37h201q45 0 45 -37v-194q0 -37 -45 -37h-201q-45 0 -45 37zM1138 1581v194q0 37 45 37h201q47 0 47 -37v-194q0 -37 -47 -37h-201q-45 0 -45 37z" />
<glyph unicode="&#xdd;" horiz-adv-x="1835" d="M20 0zM26 1420.5q5 13.5 23 13.5h275q33 0 49 -25l547 -739l550 739q16 25 50 25h268q16 0 22.5 -13.5t-4.5 -27.5l-735 -955v-393q0 -45 -45 -45h-221q-47 0 -47 45v393l-727 955q-10 14 -5 27.5zM748 1507q-10 10 2 29l182 301q23 39 64 39h182q23 0 33 -10.5t-4 -28.5 l-209 -301q-12 -20 -25.5 -29.5t-36.5 -9.5h-155q-23 0 -33 10z" />
<glyph unicode="&#xde;" horiz-adv-x="1818" d="M135 45v1344q0 45 47 45h221q45 0 46 -45v-220h856q231 0 331.5 -104t100.5 -305v-119q0 -201 -100.5 -305.5t-331.5 -104.5h-856v-186q0 -45 -46 -45h-221q-47 0 -47 45zM449 502h794q100 0 140 42t40 130v53q0 88 -40 130t-140 42h-794v-397z" />
<glyph unicode="&#xdf;" horiz-adv-x="1875" d="M129 45v1122q0 109 18.5 186t65.5 126t127 72.5t203 23.5h227q119 0 195.5 -23.5t123 -72.5t64.5 -126t18 -186v-200q0 -47 20.5 -71t74.5 -24h178q170 0 244.5 -74.5t74.5 -244.5v-221q0 -162 -70.5 -247t-250.5 -85h-770q-37 0 -37 37v168q0 37 37 37h669 q72 0 102 33.5t30 99.5v131q0 68 -33 98.5t-101 30.5h-157q-166 0 -234.5 69.5t-68.5 204.5v258q0 86 -33 126t-127 40h-127q-100 0 -135 -40t-35 -126v-1122q0 -45 -45 -45h-201q-47 0 -47 45z" />
<glyph unicode="&#xe0;" d="M84 0zM84 291v98q0 63 15.5 113.5t52 85.5t97 52t150.5 17h834v39q0 49 -10.5 84t-35 56.5t-67.5 32t-110 10.5h-856q-37 0 -37 36v172q0 37 37 37h884q137 0 231.5 -23.5t151 -73.5t81 -129t24.5 -189v-545q0 -49 -7.5 -81t-24.5 -50.5t-46 -25.5t-74 -7h-975 q-90 0 -150.5 17.5t-97 52t-52 90t-15.5 131.5zM369 332q0 -55 25.5 -81t88.5 -26h691q33 0 46 15.5t13 54.5v180h-750q-63 0 -88.5 -25.5t-25.5 -74.5v-43zM522 1659q10 12 33 12h180q41 0 64 -47l186 -379q10 -23 1 -35t-34 -12h-153q-25 0 -38.5 12.5t-25.5 34.5 l-211 379q-12 23 -2 35z" />
<glyph unicode="&#xe1;" d="M84 0zM84 291v98q0 63 15.5 113.5t52 85.5t97 52t150.5 17h834v39q0 49 -10.5 84t-35 56.5t-67.5 32t-110 10.5h-856q-37 0 -37 36v172q0 37 37 37h884q137 0 231.5 -23.5t151 -73.5t81 -129t24.5 -189v-545q0 -49 -7.5 -81t-24.5 -50.5t-46 -25.5t-74 -7h-975 q-90 0 -150.5 17.5t-97 52t-52 90t-15.5 131.5zM369 332q0 -55 25.5 -81t88.5 -26h691q33 0 46 15.5t13 54.5v180h-750q-63 0 -88.5 -25.5t-25.5 -74.5v-43zM639 1210.5q-10 12.5 0 34.5l186 379q23 47 64 47h180q23 0 33 -12t-2 -35l-211 -379q-12 -23 -25.5 -35t-36.5 -12 h-155q-23 0 -33 12.5z" />
<glyph unicode="&#xe2;" d="M84 0zM84 291v98q0 63 15.5 113.5t52 85.5t97 52t150.5 17h834v39q0 49 -10.5 84t-35 56.5t-67.5 32t-110 10.5h-856q-37 0 -37 36v172q0 37 37 37h884q137 0 231.5 -23.5t151 -73.5t81 -129t24.5 -189v-545q0 -49 -7.5 -81t-24.5 -50.5t-46 -25.5t-74 -7h-975 q-90 0 -150.5 17.5t-97 52t-52 90t-15.5 131.5zM369 332q0 -55 25.5 -81t88.5 -26h691q33 0 46 15.5t13 54.5v180h-750q-63 0 -88.5 -25.5t-25.5 -74.5v-43zM404 1212.5q-9 14.5 5 36.5l217 371q16 27 35 39t53 12h183q35 0 53 -12t35 -39l217 -371q14 -23 5 -37t-32 -14 h-157q-25 0 -39.5 11.5t-24.5 33.5l-119 227q-10 18 -24 19h-9q-18 0 -26 -19l-119 -227q-10 -23 -24.5 -34t-38.5 -11h-158q-23 0 -32 14.5z" />
<glyph unicode="&#xe3;" d="M84 0zM84 291v98q0 63 15.5 113.5t52 85.5t97 52t150.5 17h834v39q0 49 -10.5 84t-35 56.5t-67.5 32t-110 10.5h-856q-37 0 -37 36v172q0 37 37 37h884q137 0 231.5 -23.5t151 -73.5t81 -129t24.5 -189v-545q0 -49 -7.5 -81t-24.5 -50.5t-46 -25.5t-74 -7h-975 q-90 0 -150.5 17.5t-97 52t-52 90t-15.5 131.5zM281 1296q0 90 14.5 150.5t46 96.5t79.5 50.5t116 14.5q113 0 190.5 -32t149.5 -91q33 -29 64.5 -47.5t91.5 -18.5q61 0 76.5 30t15.5 116q2 29 16 39t41 10h115q25 0 31 -14.5t6 -49.5q0 -90 -14.5 -150.5t-45 -96t-79 -50 t-115.5 -14.5q-113 0 -191 32t-149 91q-33 29 -65 47t-91 18q-61 0 -76.5 -29.5t-17.5 -115.5q0 -29 -14.5 -39t-40.5 -10h-115q-25 0 -32 14.5t-7 48.5zM369 332q0 -55 25.5 -81t88.5 -26h691q33 0 46 15.5t13 54.5v180h-750q-63 0 -88.5 -25.5t-25.5 -74.5v-43z" />
<glyph unicode="&#xe4;" d="M84 0zM84 291v98q0 63 15.5 113.5t52 85.5t97 52t150.5 17h834v39q0 49 -10.5 84t-35 56.5t-67.5 32t-110 10.5h-856q-37 0 -37 36v172q0 37 37 37h884q137 0 231.5 -23.5t151 -73.5t81 -129t24.5 -189v-545q0 -49 -7.5 -81t-24.5 -50.5t-46 -25.5t-74 -7h-975 q-90 0 -150.5 17.5t-97 52t-52 90t-15.5 131.5zM369 332q0 -55 25.5 -81t88.5 -26h691q33 0 46 15.5t13 54.5v180h-750q-63 0 -88.5 -25.5t-25.5 -74.5v-43zM375 1300v195q0 45 47 45h201q45 0 45 -45v-195q0 -47 -45 -47h-201q-47 0 -47 47zM948 1300v195q0 45 45 45h201 q45 0 45 -45v-195q0 -47 -45 -47h-201q-45 0 -45 47z" />
<glyph unicode="&#xe5;" d="M84 0zM84 291v98q0 63 15.5 113.5t52 85.5t97 52t150.5 17h834v39q0 49 -10.5 84t-35 56.5t-67.5 32t-110 10.5h-856q-37 0 -37 36v172q0 37 37 37h884q137 0 231.5 -23.5t151 -73.5t81 -129t24.5 -189v-545q0 -49 -7.5 -81t-24.5 -50.5t-46 -25.5t-74 -7h-975 q-90 0 -150.5 17.5t-97 52t-52 90t-15.5 131.5zM369 332q0 -55 25.5 -81t88.5 -26h691q33 0 46 15.5t13 54.5v180h-750q-63 0 -88.5 -25.5t-25.5 -74.5v-43zM483 1343v130q0 109 48 153.5t163 44.5h231q115 0 163 -45t48 -153v-130q0 -109 -48 -153.5t-163 -44.5h-231 q-115 0 -163 45t-48 153zM635 1370q0 -53 17 -71.5t71 -18.5h176q51 0 68.5 18.5t17.5 71.5v76q0 53 -17.5 71.5t-68.5 18.5h-176q-53 0 -70.5 -18.5t-17.5 -71.5v-76z" />
<glyph unicode="&#xe6;" horiz-adv-x="2772" d="M84 291v98q0 63 15.5 113.5t52 85.5t97 52t150.5 17h834v39q0 49 -10.5 84t-35 56.5t-67.5 32t-110 10.5h-856q-37 0 -37 36v172q0 37 37 37h884q231 0 346 -69q113 70 347 69h600q104 0 172.5 -17t108.5 -57t56.5 -104.5t16.5 -157.5v-194q0 -66 -28.5 -91.5 t-88.5 -25.5h-1034v-49q0 -96 46 -139t179 -43h854q37 0 37 -37v-172q0 -37 -37 -37h-895q-145 0 -243 25q-33 -25 -113 -25h-963q-90 0 -150.5 17.5t-97 52t-52 90t-15.5 131.5zM369 332q0 -55 25.5 -81t88.5 -26h691q33 0 46 15.5t13 54.5v180h-750q-63 0 -88.5 -25.5 t-25.5 -74.5v-43zM1534 659h829q35 0 35 35v86q0 63 -26.5 90t-98.5 27h-514q-133 0 -179 -42t-46 -140v-56z" />
<glyph unicode="&#xe7;" horiz-adv-x="1492" d="M80 0zM80 414v295q0 111 24.5 189.5t81 128.5t149.5 73.5t232 23.5h824q37 0 36 -37v-172q0 -37 -36 -36h-795q-68 0 -111 -11.5t-67.5 -37t-34.5 -69.5t-10 -108v-182q0 -66 10 -109t34.5 -68.5t67.5 -36.5t111 -11h795q37 0 36 -37v-172q0 -37 -36 -37h-824 q-139 0 -232 22.5t-149.5 72.5t-81 129t-24.5 190zM631 -510l33 379q4 47 49 47h184q51 0 39 -53l-90 -373q-12 -47 -51 -47h-117q-51 0 -47 47z" />
<glyph unicode="&#xe8;" d="M84 0zM84 414v295q0 111 24.5 189.5t81 128.5t149.5 73.5t232 23.5h600q104 0 173 -17t109 -57t56.5 -104.5t16.5 -157.5v-194q0 -66 -29 -91.5t-88 -25.5h-1034v-49q0 -96 46 -139t179 -43h854q37 0 37 -37v-172q0 -37 -37 -37h-883q-139 0 -232 22.5t-149.5 72.5 t-81 129t-24.5 190zM375 659h829q35 0 35 35v86q0 63 -26.5 90t-98.5 27h-514q-133 0 -179 -42t-46 -140v-56zM516 1659q10 12 33 12h180q41 0 64 -47l186 -379q10 -23 1 -35t-34 -12h-153q-25 0 -38.5 12.5t-25.5 34.5l-211 379q-12 23 -2 35z" />
<glyph unicode="&#xe9;" d="M84 0zM84 414v295q0 111 24.5 189.5t81 128.5t149.5 73.5t232 23.5h600q104 0 173 -17t109 -57t56.5 -104.5t16.5 -157.5v-194q0 -66 -29 -91.5t-88 -25.5h-1034v-49q0 -96 46 -139t179 -43h854q37 0 37 -37v-172q0 -37 -37 -37h-883q-139 0 -232 22.5t-149.5 72.5 t-81 129t-24.5 190zM375 659h829q35 0 35 35v86q0 63 -26.5 90t-98.5 27h-514q-133 0 -179 -42t-46 -140v-56zM637 1210.5q-10 12.5 0 34.5l186 379q23 47 64 47h180q23 0 33 -12t-2 -35l-211 -379q-12 -23 -25.5 -35t-36.5 -12h-155q-23 0 -33 12.5z" />
<glyph unicode="&#xea;" d="M84 0zM84 414v295q0 111 24.5 189.5t81 128.5t149.5 73.5t232 23.5h600q104 0 173 -17t109 -57t56.5 -104.5t16.5 -157.5v-194q0 -66 -29 -91.5t-88 -25.5h-1034v-49q0 -96 46 -139t179 -43h854q37 0 37 -37v-172q0 -37 -37 -37h-883q-139 0 -232 22.5t-149.5 72.5 t-81 129t-24.5 190zM375 659h829q35 0 35 35v86q0 63 -26.5 90t-98.5 27h-514q-133 0 -179 -42t-46 -140v-56zM404 1212.5q-9 14.5 5 36.5l217 371q16 27 35 39t53 12h183q35 0 53 -12t35 -39l217 -371q14 -23 5 -37t-32 -14h-157q-25 0 -39.5 11.5t-24.5 33.5l-119 227 q-10 18 -24 19h-9q-18 0 -26 -19l-119 -227q-10 -23 -24.5 -34t-38.5 -11h-158q-23 0 -32 14.5z" />
<glyph unicode="&#xeb;" d="M84 0zM84 414v295q0 111 24.5 189.5t81 128.5t149.5 73.5t232 23.5h600q104 0 173 -17t109 -57t56.5 -104.5t16.5 -157.5v-194q0 -66 -29 -91.5t-88 -25.5h-1034v-49q0 -96 46 -139t179 -43h854q37 0 37 -37v-172q0 -37 -37 -37h-883q-139 0 -232 22.5t-149.5 72.5 t-81 129t-24.5 190zM375 659h829q35 0 35 35v86q0 63 -26.5 90t-98.5 27h-514q-133 0 -179 -42t-46 -140v-56zM375 1300v195q0 45 47 45h201q45 0 45 -45v-195q0 -47 -45 -47h-201q-47 0 -47 47zM948 1300v195q0 45 45 45h201q45 0 45 -45v-195q0 -47 -45 -47h-201 q-45 0 -45 47z" />
<glyph unicode="&#xec;" horiz-adv-x="573" d="M0 0zM4 1659q10 12 33 12h180q41 0 64 -47l186 -379q10 -23 1 -35t-34 -12h-153q-25 0 -38.5 12.5t-25.5 34.5l-211 379q-12 23 -2 35zM151 45v1032q0 47 45 47h201q45 0 45 -47v-1032q0 -45 -45 -45h-201q-45 0 -45 45z" />
<glyph unicode="&#xed;" horiz-adv-x="575" d="M96 0zM107 1210.5q-10 12.5 0 34.5l186 379q23 47 64 47h180q23 0 33 -12t-2 -35l-211 -379q-12 -23 -25.5 -35t-36.5 -12h-155q-23 0 -33 12.5zM131 45v1032q0 47 45 47h201q45 0 45 -47v-1032q0 -45 -45 -45h-201q-45 0 -45 45z" />
<glyph unicode="&#xee;" horiz-adv-x="747" d="M-28 1212.5q-9 14.5 5 36.5l217 371q16 27 35 39t53 12h183q35 0 53 -12t35 -39l217 -371q14 -23 5 -37t-32 -14h-157q-25 0 -39.5 11.5t-24.5 33.5l-119 227q-10 18 -24 19h-9q-18 0 -26 -19l-119 -227q-10 -23 -24.5 -34t-38.5 -11h-158q-23 0 -32 14.5zM0 0zM227 45 v1032q0 47 45 47h201q45 0 45 -47v-1032q0 -45 -45 -45h-201q-45 0 -45 45z" />
<glyph unicode="&#xef;" horiz-adv-x="786" d="M6 0zM6 1300v195q0 45 47 45h201q45 0 45 -45v-195q0 -47 -45 -47h-201q-47 0 -47 47zM248 45v1032q0 47 45 47h201q45 0 45 -47v-1032q0 -45 -45 -45h-201q-45 0 -45 45zM483 1300v195q0 45 47 45h201q45 0 45 -45v-195q0 -47 -45 -47h-201q-47 0 -47 47z" />
<glyph unicode="&#xf0;" horiz-adv-x="1783" d="M111 420v155q0 113 24.5 192t80.5 129t149.5 73.5t232.5 23.5h770v150q0 106 -46 153t-177 47h-322l-94 -204q-6 -16 -13 -24.5t-28 -8.5h-139q-16 0 -24.5 10t-0.5 29l92 198h-178q-37 0 -37 37v174q0 37 37 37h293l68 146q6 18 13 25t28 7h139q39 0 25 -36l-66 -142 h233q139 0 232.5 -23.5t151 -74.5t81 -130t23.5 -192v-751q0 -113 -23.5 -193t-81 -130t-150.5 -73.5t-233 -23.5h-573q-139 0 -232.5 23.5t-149.5 73.5t-80.5 130t-24.5 193zM403 475q0 -66 10.5 -109.5t37 -70.5t71.5 -38t117 -11h504q68 0 111.5 11t68.5 38t35 71t10 111 v303h-741q-68 0 -111 -11t-68.5 -37.5t-35 -71t-9.5 -109.5v-76z" />
<glyph unicode="&#xf1;" horiz-adv-x="1810" d="M123 0zM123 45v664q0 111 24.5 189.5t81 128.5t149.5 73.5t232 23.5h588q137 0 231.5 -23.5t150.5 -73.5t81 -129t25 -189v-664q0 -45 -46 -45h-200q-45 0 -45 45v594q0 63 -8.5 107.5t-32 70t-64.5 36.5t-106 11h-545q-66 0 -109 -11t-68.5 -36.5t-35.5 -70t-10 -107.5 v-594q0 -45 -45 -45h-201q-47 0 -47 45zM377 1296q0 90 14.5 150.5t46 96.5t79.5 50.5t116 14.5q113 0 190.5 -32t149.5 -91q33 -29 64.5 -47.5t91.5 -18.5q61 0 76.5 30t15.5 116q2 29 16 39t41 10h115q25 0 31 -14.5t6 -49.5q0 -90 -14.5 -150.5t-45 -96t-79 -50 t-115.5 -14.5q-113 0 -191 32t-149 91q-33 29 -65 47t-91 18q-61 0 -76.5 -29.5t-17.5 -115.5q0 -29 -14.5 -39t-40.5 -10h-115q-25 0 -32 14.5t-7 48.5z" />
<glyph unicode="&#xf2;" horiz-adv-x="1777" d="M111 0zM111 414v295q0 111 24.5 189.5t80.5 128.5t149.5 73.5t232.5 23.5h580q137 0 231 -23.5t150.5 -73.5t81 -129t24.5 -189v-295q0 -111 -24.5 -190t-81 -129t-150.5 -72.5t-231 -22.5h-580q-139 0 -232.5 22.5t-149.5 72.5t-80.5 129t-24.5 190zM403 465 q0 -66 10.5 -109t36 -68.5t68.5 -36.5t109 -11h522q68 0 111 11t68.5 36.5t35.5 68.5t10 109v194q0 63 -10 106.5t-35.5 70t-68.5 37t-111 10.5h-522q-66 0 -109 -10.5t-68.5 -37t-36 -69.5t-10.5 -107v-194zM598 1659q10 12 33 12h180q41 0 64 -47l186 -379q10 -23 1 -35 t-34 -12h-153q-25 0 -38.5 12.5t-25.5 34.5l-211 379q-12 23 -2 35z" />
<glyph unicode="&#xf3;" horiz-adv-x="1777" d="M111 0zM111 414v295q0 111 24.5 189.5t80.5 128.5t149.5 73.5t232.5 23.5h580q137 0 231 -23.5t150.5 -73.5t81 -129t24.5 -189v-295q0 -111 -24.5 -190t-81 -129t-150.5 -72.5t-231 -22.5h-580q-139 0 -232.5 22.5t-149.5 72.5t-80.5 129t-24.5 190zM403 465 q0 -66 10.5 -109t36 -68.5t68.5 -36.5t109 -11h522q68 0 111 11t68.5 36.5t35.5 68.5t10 109v194q0 63 -10 106.5t-35.5 70t-68.5 37t-111 10.5h-522q-66 0 -109 -10.5t-68.5 -37t-36 -69.5t-10.5 -107v-194zM713 1210.5q-10 12.5 0 34.5l186 379q23 47 64 47h180 q23 0 33 -12t-2 -35l-211 -379q-12 -23 -25.5 -35t-36.5 -12h-155q-23 0 -33 12.5z" />
<glyph unicode="&#xf4;" horiz-adv-x="1777" d="M111 0zM111 414v295q0 111 24.5 189.5t80.5 128.5t149.5 73.5t232.5 23.5h580q137 0 231 -23.5t150.5 -73.5t81 -129t24.5 -189v-295q0 -111 -24.5 -190t-81 -129t-150.5 -72.5t-231 -22.5h-580q-139 0 -232.5 22.5t-149.5 72.5t-80.5 129t-24.5 190zM403 465 q0 -66 10.5 -109t36 -68.5t68.5 -36.5t109 -11h522q68 0 111 11t68.5 36.5t35.5 68.5t10 109v194q0 63 -10 106.5t-35.5 70t-68.5 37t-111 10.5h-522q-66 0 -109 -10.5t-68.5 -37t-36 -69.5t-10.5 -107v-194zM484 1212.5q-9 14.5 5 36.5l217 371q16 27 35 39t53 12h183 q35 0 53 -12t35 -39l217 -371q14 -23 5 -37t-32 -14h-157q-25 0 -39.5 11.5t-24.5 33.5l-119 227q-10 18 -24 19h-9q-18 0 -26 -19l-119 -227q-10 -23 -24.5 -34t-38.5 -11h-158q-23 0 -32 14.5z" />
<glyph unicode="&#xf5;" horiz-adv-x="1777" d="M111 0zM111 414v295q0 111 24.5 189.5t80.5 128.5t149.5 73.5t232.5 23.5h580q137 0 231 -23.5t150.5 -73.5t81 -129t24.5 -189v-295q0 -111 -24.5 -190t-81 -129t-150.5 -72.5t-231 -22.5h-580q-139 0 -232.5 22.5t-149.5 72.5t-80.5 129t-24.5 190zM363 1296 q0 90 14.5 150.5t46 96.5t79.5 50.5t116 14.5q113 0 190.5 -32t149.5 -91q33 -29 64.5 -47.5t91.5 -18.5q61 0 76.5 30t15.5 116q2 29 16 39t41 10h115q25 0 31 -14.5t6 -49.5q0 -90 -14.5 -150.5t-45 -96t-79 -50t-115.5 -14.5q-113 0 -191 32t-149 91q-33 29 -65 47 t-91 18q-61 0 -76.5 -29.5t-17.5 -115.5q0 -29 -14.5 -39t-40.5 -10h-115q-25 0 -32 14.5t-7 48.5zM403 465q0 -66 10.5 -109t36 -68.5t68.5 -36.5t109 -11h522q68 0 111 11t68.5 36.5t35.5 68.5t10 109v194q0 63 -10 106.5t-35.5 70t-68.5 37t-111 10.5h-522 q-66 0 -109 -10.5t-68.5 -37t-36 -69.5t-10.5 -107v-194z" />
<glyph unicode="&#xf6;" horiz-adv-x="1777" d="M111 0zM111 414v295q0 111 24.5 189.5t80.5 128.5t149.5 73.5t232.5 23.5h580q137 0 231 -23.5t150.5 -73.5t81 -129t24.5 -189v-295q0 -111 -24.5 -190t-81 -129t-150.5 -72.5t-231 -22.5h-580q-139 0 -232.5 22.5t-149.5 72.5t-80.5 129t-24.5 190zM403 465 q0 -66 10.5 -109t36 -68.5t68.5 -36.5t109 -11h522q68 0 111 11t68.5 36.5t35.5 68.5t10 109v194q0 63 -10 106.5t-35.5 70t-68.5 37t-111 10.5h-522q-66 0 -109 -10.5t-68.5 -37t-36 -69.5t-10.5 -107v-194zM455 1300v195q0 45 47 45h201q45 0 45 -45v-195q0 -47 -45 -47 h-201q-47 0 -47 47zM1028 1300v195q0 45 45 45h201q45 0 45 -45v-195q0 -47 -45 -47h-201q-45 0 -45 47z" />
<glyph unicode="&#xf7;" horiz-adv-x="1255" d="M86 109zM86 655v123q0 37 37 37h1010q37 0 36 -37v-123q0 -37 -36 -37h-1010q-37 0 -37 37zM481 154v197q0 45 47 45h201q45 0 45 -45v-197q0 -45 -45 -45h-201q-47 0 -47 45zM481 1083v197q0 45 47 45h201q45 0 45 -45v-197q0 -45 -45 -45h-201q-47 0 -47 45z" />
<glyph unicode="&#xf8;" horiz-adv-x="1777" d="M111 414v295q0 111 24.5 189.5t80.5 128.5t149.5 73.5t232.5 23.5h580q61 0 116 -6l150 164q16 20 28.5 27.5t36.5 7.5h123q20 0 25.5 -13.5t-6.5 -27.5l-181 -195q106 -43 150.5 -134t44.5 -238v-295q0 -111 -24.5 -190t-81 -129t-150.5 -72.5t-231 -22.5h-580h-58.5 t-54.5 4l-149 -164q-16 -18 -28.5 -25.5t-37.5 -7.5h-123q-18 0 -23 13.5t5 25.5l178 195q-111 41 -153.5 132t-42.5 241zM403 465q0 -92 20.5 -141.5t78.5 -69.5l575 629h-450q-66 0 -109 -10.5t-68.5 -37t-36 -69.5t-10.5 -107v-194zM700 240h449q68 0 111 11t68.5 36.5 t35.5 68.5t10 109v194q0 92 -21.5 140.5t-76.5 66.5z" />
<glyph unicode="&#xf9;" horiz-adv-x="1794" d="M123 0zM123 414v663q0 47 47 47h201q45 0 45 -47v-592q0 -66 8 -108.5t30.5 -68t63.5 -37t109 -11.5h526q68 0 111 11.5t68.5 37t35.5 68.5t10 108v592q0 47 45 47h201q45 0 45 -47v-663q0 -111 -24.5 -190t-81 -129t-150.5 -72.5t-231 -22.5h-572q-139 0 -232 22.5 t-149.5 72.5t-81 129t-24.5 190zM606 1659q10 12 33 12h180q41 0 64 -47l186 -379q10 -23 1 -35t-34 -12h-153q-25 0 -38.5 12.5t-25.5 34.5l-211 379q-12 23 -2 35z" />
<glyph unicode="&#xfa;" horiz-adv-x="1794" d="M123 0zM123 414v663q0 47 47 47h201q45 0 45 -47v-592q0 -66 8 -108.5t30.5 -68t63.5 -37t109 -11.5h526q68 0 111 11.5t68.5 37t35.5 68.5t10 108v592q0 47 45 47h201q45 0 45 -47v-663q0 -111 -24.5 -190t-81 -129t-150.5 -72.5t-231 -22.5h-572q-139 0 -232 22.5 t-149.5 72.5t-81 129t-24.5 190zM725 1210.5q-10 12.5 0 34.5l186 379q23 47 64 47h180q23 0 33 -12t-2 -35l-211 -379q-12 -23 -25.5 -35t-36.5 -12h-155q-23 0 -33 12.5z" />
<glyph unicode="&#xfb;" horiz-adv-x="1794" d="M123 0zM123 414v663q0 47 47 47h201q45 0 45 -47v-592q0 -66 8 -108.5t30.5 -68t63.5 -37t109 -11.5h526q68 0 111 11.5t68.5 37t35.5 68.5t10 108v592q0 47 45 47h201q45 0 45 -47v-663q0 -111 -24.5 -190t-81 -129t-150.5 -72.5t-231 -22.5h-572q-139 0 -232 22.5 t-149.5 72.5t-81 129t-24.5 190zM492 1212.5q-9 14.5 5 36.5l217 371q16 27 35 39t53 12h183q35 0 53 -12t35 -39l217 -371q14 -23 5 -37t-32 -14h-157q-25 0 -39.5 11.5t-24.5 33.5l-119 227q-10 18 -24 19h-9q-18 0 -26 -19l-119 -227q-10 -23 -24.5 -34t-38.5 -11h-158 q-23 0 -32 14.5z" />
<glyph unicode="&#xfc;" horiz-adv-x="1794" d="M123 0zM123 414v663q0 47 47 47h201q45 0 45 -47v-592q0 -66 8 -108.5t30.5 -68t63.5 -37t109 -11.5h526q68 0 111 11.5t68.5 37t35.5 68.5t10 108v592q0 47 45 47h201q45 0 45 -47v-663q0 -111 -24.5 -190t-81 -129t-150.5 -72.5t-231 -22.5h-572q-139 0 -232 22.5 t-149.5 72.5t-81 129t-24.5 190zM465 1300v195q0 45 47 45h201q45 0 45 -45v-195q0 -47 -45 -47h-201q-47 0 -47 47zM1038 1300v195q0 45 45 45h201q45 0 45 -45v-195q0 -47 -45 -47h-201q-45 0 -45 47z" />
<glyph unicode="&#xfd;" horiz-adv-x="1699" d="M25 0zM32 1108.5q7 15.5 29 15.5h236q35 0 49 -28l455 -789q16 -29 25.5 -38t23.5 -9l481 836q14 29 49 28h230q23 0 30 -15t-4 -36l-786 -1386q-41 -72 -116 -106t-208 -34h-143q-37 0 -37 37v168q0 37 37 37h121q78 0 104 47l111 195q-51 4 -79 24.5t-52 63.5l-553 954 q-10 20 -3 35.5zM682 1210.5q-10 12.5 0 34.5l186 379q23 47 64 47h180q23 0 33 -12t-2 -35l-211 -379q-12 -23 -25.5 -35t-36.5 -12h-155q-23 0 -33 12.5z" />
<glyph unicode="&#xfe;" horiz-adv-x="1783" d="M123 -408v1899q0 45 47 45h201q45 0 45 -45v-367h768q137 0 231 -23.5t150.5 -73.5t81 -129t24.5 -189v-295q0 -111 -24.5 -190t-81 -129t-150.5 -72.5t-231 -22.5h-768v-408q0 -45 -45 -45h-201q-47 0 -47 45zM416 246h739q68 0 111 11t68.5 36.5t35.5 69t10 108.5v182 q0 63 -10 107.5t-35.5 70t-68.5 37t-111 11.5h-739v-633z" />
<glyph unicode="&#xff;" horiz-adv-x="1699" d="M25 0zM32 1108.5q7 15.5 29 15.5h236q35 0 49 -28l455 -789q16 -29 25.5 -38t23.5 -9l481 836q14 29 49 28h230q23 0 30 -15t-4 -36l-786 -1386q-41 -72 -116 -106t-208 -34h-143q-37 0 -37 37v168q0 37 37 37h121q78 0 104 47l111 195q-51 4 -79 24.5t-52 63.5l-553 954 q-10 20 -3 35.5zM418 1300v195q0 45 47 45h201q45 0 45 -45v-195q0 -47 -45 -47h-201q-47 0 -47 47zM991 1300v195q0 45 45 45h201q45 0 45 -45v-195q0 -47 -45 -47h-201q-45 0 -45 47z" />
<glyph unicode="&#x152;" horiz-adv-x="3217" d="M119 541v352q0 147 31.5 249.5t100 167t177.5 94.5t264 30h633q145 0 248.5 -26t173.5 -81q70 55 173 81t249 26h901q47 0 47 -45v-195q0 -45 -47 -45h-895q-80 0 -132 -13.5t-84 -45t-44 -86t-12 -134.5v-20h1157q45 0 45 -45v-162q0 -45 -45 -45h-1157v-35 q0 -80 12 -134t44 -86t84 -45t132 -13h895q47 0 47 -45v-195q0 -45 -47 -45h-901q-145 0 -248.5 24.5t-173.5 79.5q-70 -55 -173.5 -79.5t-248.5 -24.5h-633q-156 0 -264.5 28.5t-177 93t-100 168t-31.5 251.5zM432 563q0 -80 13.5 -134t44 -86t83 -45t132.5 -13h608 q80 0 132 13t83 45t44 86t13 134v307q0 80 -13 134.5t-44 86t-83 45t-132 13.5h-608q-80 0 -132.5 -13.5t-83 -45t-44 -86t-13.5 -134.5v-307z" />
<glyph unicode="&#x153;" horiz-adv-x="2914" d="M111 414v295q0 111 24.5 189.5t80.5 128.5t149.5 73.5t232.5 23.5h580q231 0 346 -69q113 70 346 69h600q104 0 173 -17t108.5 -57t56 -104.5t16.5 -157.5v-194q0 -66 -28.5 -91.5t-88.5 -25.5h-1034v-49q0 -96 46 -139t179 -43h855q37 0 36 -37v-172q0 -37 -36 -37h-883 q-233 0 -346 70q-115 -70 -346 -70h-580q-139 0 -232.5 22.5t-149.5 72.5t-80.5 129t-24.5 190zM403 465q0 -66 10.5 -109t36 -68.5t68.5 -36.5t109 -11h522q68 0 111 11t68.5 36.5t35.5 68.5t10 109v194q0 63 -10 106.5t-35.5 70t-68.5 37t-111 10.5h-522q-66 0 -109 -10.5 t-68.5 -37t-36 -69.5t-10.5 -107v-194zM1673 659h830q35 0 34 35v86q0 63 -26.5 90t-97.5 27h-515q-133 0 -179 -42t-46 -140v-56z" />
<glyph unicode="&#x178;" horiz-adv-x="1835" d="M20 0zM26 1420.5q5 13.5 23 13.5h275q33 0 49 -25l547 -739l550 739q16 25 50 25h268q16 0 22.5 -13.5t-4.5 -27.5l-735 -955v-393q0 -45 -45 -45h-221q-47 0 -47 45v393l-727 955q-10 14 -5 27.5zM485 1581v194q0 37 45 37h201q45 0 45 -37v-194q0 -37 -45 -37h-201 q-45 0 -45 37zM1056 1581v194q0 37 45 37h201q47 0 47 -37v-194q0 -37 -47 -37h-201q-45 0 -45 37z" />
<glyph unicode="&#x2c6;" horiz-adv-x="985" d="M91 1212.5q-9 14.5 5 36.5l217 371q16 27 35 39t53 12h183q35 0 53 -12t35 -39l217 -371q14 -23 5 -37t-32 -14h-157q-25 0 -39.5 11.5t-24.5 33.5l-119 227q-10 18 -24 19h-9q-18 0 -26 -19l-119 -227q-10 -23 -24.5 -34t-38.5 -11h-158q-23 0 -32 14.5z" />
<glyph unicode="&#x2dc;" horiz-adv-x="1308" d="M127 1296q0 90 14.5 150.5t46 96.5t79.5 50.5t116 14.5q113 0 190.5 -32t149.5 -91q33 -29 64.5 -47.5t91.5 -18.5q61 0 76.5 30t15.5 116q2 29 16 39t41 10h115q25 0 31 -14.5t6 -49.5q0 -90 -14.5 -150.5t-45 -96t-79 -50t-115.5 -14.5q-113 0 -191 32t-149 91 q-33 29 -65 47t-91 18q-61 0 -76.5 -29.5t-17.5 -115.5q0 -29 -14.5 -39t-40.5 -10h-115q-25 0 -32 14.5t-7 48.5z" />
<glyph unicode="&#x2000;" horiz-adv-x="938" />
<glyph unicode="&#x2001;" horiz-adv-x="1876" />
<glyph unicode="&#x2002;" horiz-adv-x="938" />
<glyph unicode="&#x2003;" horiz-adv-x="1876" />
<glyph unicode="&#x2004;" horiz-adv-x="625" />
<glyph unicode="&#x2005;" horiz-adv-x="469" />
<glyph unicode="&#x2006;" horiz-adv-x="312" />
<glyph unicode="&#x2007;" horiz-adv-x="312" />
<glyph unicode="&#x2008;" horiz-adv-x="234" />
<glyph unicode="&#x2009;" horiz-adv-x="375" />
<glyph unicode="&#x200a;" horiz-adv-x="104" />
<glyph unicode="&#x2010;" horiz-adv-x="782" d="M45 631v147q0 37 37 37h616q37 0 37 -37v-147q0 -37 -37 -37h-616q-37 0 -37 37z" />
<glyph unicode="&#x2011;" horiz-adv-x="782" d="M45 631v147q0 37 37 37h616q37 0 37 -37v-147q0 -37 -37 -37h-616q-37 0 -37 37z" />
<glyph unicode="&#x2012;" horiz-adv-x="782" d="M45 631v147q0 37 37 37h616q37 0 37 -37v-147q0 -37 -37 -37h-616q-37 0 -37 37z" />
<glyph unicode="&#x2013;" horiz-adv-x="1261" d="M45 631v147q0 37 37 37h1098q37 0 37 -37v-147q0 -37 -37 -37h-1098q-37 0 -37 37z" />
<glyph unicode="&#x2014;" horiz-adv-x="1884" d="M45 631v147q0 37 37 37h1718q37 0 37 -37v-147q0 -37 -37 -37h-1718q-37 0 -37 37z" />
<glyph unicode="&#x2018;" horiz-adv-x="546" d="M127 942v172q0 27 2 46.5t12 49.5l76 279q14 47 55 47h84q47 0 37 -47l-55 -303h37q45 0 45 -45v-199q0 -45 -45 -45h-201q-47 0 -47 45z" />
<glyph unicode="&#x2019;" horiz-adv-x="546" d="M127 897zM127 1292v199q0 45 47 45h201q45 0 45 -45v-174q0 -27 -2 -45.5t-12 -51.5l-76 -278q-8 -27 -19.5 -36t-36.5 -9h-81q-49 0 -39 45l55 305h-35q-47 0 -47 45z" />
<glyph unicode="&#x201a;" horiz-adv-x="546" d="M127 0zM127 43v199q0 45 47 45h201q45 0 45 -45v-174q0 -27 -2 -45.5t-12 -51.5l-76 -278q-8 -27 -19.5 -36t-36.5 -9h-81q-49 0 -39 45l55 305h-35q-47 0 -47 45z" />
<glyph unicode="&#x201c;" horiz-adv-x="985" d="M127 897zM127 942v172q0 27 2 46.5t12 49.5l76 279q14 47 55 47h84q47 0 37 -47l-55 -303h37q45 0 45 -45v-199q0 -45 -45 -45h-201q-47 0 -47 45zM565 942v172q0 27 2 46.5t12 49.5l76 279q14 47 55 47h84q47 0 37 -47l-55 -303h37q45 0 45 -45v-199q0 -45 -45 -45h-201 q-47 0 -47 45z" />
<glyph unicode="&#x201d;" horiz-adv-x="985" d="M127 897zM127 1292v199q0 45 47 45h201q45 0 45 -45v-174q0 -27 -2 -45.5t-12 -51.5l-76 -278q-8 -27 -19.5 -36t-36.5 -9h-81q-49 0 -39 45l55 305h-35q-47 0 -47 45zM565 1292v199q0 45 47 45h201q45 0 45 -45v-174q0 -27 -2 -45.5t-12 -51.5l-76 -278 q-8 -27 -19.5 -36t-36.5 -9h-81q-49 0 -39 45l55 305h-35q-47 0 -47 45z" />
<glyph unicode="&#x201e;" horiz-adv-x="985" d="M127 0zM127 43v199q0 45 47 45h201q45 0 45 -45v-174q0 -27 -2 -45.5t-12 -51.5l-76 -278q-8 -27 -19.5 -36t-36.5 -9h-81q-49 0 -39 45l55 305h-35q-47 0 -47 45zM565 43v199q0 45 47 45h201q45 0 45 -45v-174q0 -27 -2 -45.5t-12 -51.5l-76 -278q-8 -27 -19.5 -36 t-36.5 -9h-81q-49 0 -39 45l55 305h-35q-47 0 -47 45z" />
<glyph unicode="&#x2022;" horiz-adv-x="905" d="M150 641v131q0 111 49 156t166 45h176q117 0 166 -45t49 -156v-131q0 -111 -49.5 -156t-165.5 -45h-176q-117 0 -166 45t-49 156z" />
<glyph unicode="&#x2026;" horiz-adv-x="1671" d="M127 0zM127 45v197q0 45 47 45h201q45 0 45 -45v-197q0 -45 -45 -45h-201q-47 0 -47 45zM688 45v197q0 45 47 45h201q45 0 45 -45v-197q0 -45 -45 -45h-201q-47 0 -47 45zM1251 45v197q0 45 47 45h201q45 0 45 -45v-197q0 -45 -45 -45h-201q-47 0 -47 45z" />
<glyph unicode="&#x202f;" horiz-adv-x="375" />
<glyph unicode="&#x2039;" horiz-adv-x="606" d="M66 555v14q0 31 5 51.5t19 49.5l203 420q16 35 55 34h156q23 0 32 -13t-1 -30l-228 -465q-12 -25 -12 -47v-14q0 -27 12 -47l228 -465q10 -16 0.5 -29.5t-31.5 -13.5h-156q-39 0 -55 35l-203 420q-14 29 -19 48t-5 52z" />
<glyph unicode="&#x203a;" horiz-adv-x="606" d="M70 13.5q-9 13.5 2 29.5l227 465q10 18 10 47v14q0 27 -10 47l-227 465q-10 16 -1 29.5t31 13.5h156q37 0 55 -34l203 -420q14 -29 19.5 -49.5t5.5 -51.5v-14q0 -33 -5.5 -52.5t-19.5 -47.5l-203 -420q-18 -35 -55 -35h-156q-23 0 -32 13.5z" />
<glyph unicode="&#x205f;" horiz-adv-x="469" />
<glyph unicode="&#x20ac;" horiz-adv-x="1677" d="M57 551v49q0 37 37 37h225v164h-225q-37 0 -37 37v51q0 37 37 37h225q2 137 36 234t103.5 157.5t176 88.5t258.5 28h651q45 0 45 -45v-183q0 -45 -45 -45h-651q-74 0 -124 -11t-82 -39t-47 -73t-17 -112h538q37 0 37 -37v-51q0 -37 -37 -37h-538v-164h538q37 0 37 -37 v-49q0 -37 -37 -37h-538q2 -70 16 -117t46 -74.5t83 -39t125 -11.5h651q45 0 45 -45v-182q0 -45 -45 -45h-651q-152 0 -259.5 27.5t-177 89t-102 160t-35.5 237.5h-225q-37 0 -37 37z" />
<glyph unicode="&#x2122;" horiz-adv-x="2678" d="M82 1286v121q0 27 29 27h958q29 0 29 -27v-121q0 -29 -29 -29h-385v-657q0 -27 -27 -27h-135q-27 0 -26 27v657h-385q-29 0 -29 29zM1233 600v707q0 70 21.5 98.5t86.5 28.5h134q55 0 80.5 -18.5t52.5 -76.5l254 -589q4 -10 18 -11h14q14 0 17 11l256 589q25 59 50.5 77 t80.5 18h131q66 0 87 -29t21 -98v-707q0 -27 -28 -27h-125q-27 0 -27 27v641q0 12 -10 12h-12q-12 0 -15 -8l-249 -551q-29 -66 -62 -93.5t-94 -27.5h-60q-61 0 -93.5 28t-63.5 93l-248 551q-2 8 -16 8h-11q-10 0 -10 -12v-641q0 -27 -27 -27h-126q-27 0 -27 27z" />
<glyph unicode="&#x25fc;" horiz-adv-x="1126" d="M0 0v1126h1126v-1126h-1126z" />
</font>
</defs>
</svg>
